<svg width="385" height="26" viewBox="0 0 385 26" fill="none" xmlns="http://www.w3.org/2000/svg">
<path d="M362.23 16.5561C361.702 16.5723 361.168 16.5835 360.651 16.6078C360.315 16.623 360.171 16.5784 359.947 16.5551C359.872 16.547 359.792 16.5308 359.723 16.5328C359.2 16.549 358.678 16.5673 358.155 16.5855C357.995 16.6251 357.894 16.6778 357.648 16.697C357.408 16.7153 357.126 16.7153 356.859 16.7244C356.507 16.7356 356.155 16.7467 355.803 16.7569C355.627 16.7619 355.483 16.7812 355.424 16.8177C355.413 16.8238 355.531 16.839 355.595 16.8481C355.808 16.8785 356.016 16.913 356.251 16.9363C356.475 16.9586 356.752 16.9221 356.992 16.9505C357.531 17.0144 357.536 17.0134 357.947 17.0012C358.299 16.9901 358.651 16.9779 359.003 16.9698C359.072 16.9678 359.152 16.983 359.227 16.9911C359.451 17.0134 359.595 17.0641 359.926 17.0448C360.176 17.0296 360.454 17.0266 360.715 17.0185C360.934 17.0479 361.137 17.0813 361.371 17.1046C361.59 17.127 361.654 17.1442 361.537 17.1736C361.43 17.201 361.281 17.2121 361.083 17.2142C360.907 17.2152 360.731 17.2243 360.555 17.2294C360.464 17.2324 360.379 17.2344 360.294 17.2375C359.958 17.2486 359.958 17.2486 359.344 17.1837C359.104 17.1584 358.832 17.1939 358.603 17.1695C358.448 17.1533 358.315 17.129 358.166 17.1117C358.102 17.1047 358 17.1036 357.92 17.1057C357.654 17.1128 357.387 17.1178 357.131 17.131C356.949 17.1401 356.843 17.1685 356.864 17.1969C356.869 17.2081 356.997 17.2243 357.072 17.2253C357.243 17.2273 357.424 17.2131 357.589 17.2202C357.749 17.2273 357.915 17.2476 358.032 17.2699C358.272 17.3166 358.544 17.275 358.774 17.2872C359.014 17.3003 359.211 17.3409 359.44 17.3652C359.499 17.3713 359.611 17.3612 359.702 17.3581C359.963 17.351 360.224 17.3449 360.486 17.3379C360.705 17.3673 360.939 17.3936 361.137 17.4271C361.494 17.4879 361.878 17.5112 362.342 17.4818C362.603 17.4656 362.859 17.4717 363.067 17.5112C363.281 17.5518 363.526 17.5477 363.798 17.5396C364.049 17.5315 364.305 17.5092 364.561 17.5376C365.116 17.6005 365.121 17.6035 365.777 17.5792C365.974 17.5721 366.124 17.57 366.273 17.5934C366.412 17.6147 366.561 17.6329 366.705 17.6532C366.966 17.6461 367.233 17.639 367.494 17.6309C367.83 17.6197 368.017 17.6339 368.097 17.6907C368.145 17.7252 368.166 17.7566 368.284 17.7799C368.422 17.8083 368.572 17.8073 368.774 17.7992C368.966 17.7921 369.105 17.7809 369.185 17.7444C369.217 17.7292 369.281 17.715 369.34 17.7029C369.388 17.6937 369.463 17.6795 369.505 17.6816C369.585 17.6856 369.692 17.6968 369.719 17.71C369.98 17.8326 369.98 17.8337 370.247 17.8691C370.54 17.9087 370.844 17.9442 371.111 17.9888C371.351 18.0283 371.591 18.0111 371.852 18.0111C372.049 18.0111 372.177 18.0375 372.161 18.0638C372.151 18.079 372.076 18.1013 372.012 18.1034C371.489 18.1236 370.961 18.1409 370.433 18.1551C370.369 18.1571 370.289 18.1388 370.215 18.1297C370.065 18.1115 369.932 18.0831 369.772 18.077C369.612 18.0709 369.425 18.0861 369.249 18.0912C369.073 18.0963 368.887 18.1094 368.727 18.1013C368.567 18.0932 368.438 18.0638 368.289 18.0445C368.22 18.0354 368.124 18.0222 368.065 18.0253C367.676 18.0496 367.388 18.0162 367.11 17.9715C367.052 17.9624 366.95 17.9563 366.876 17.9584C366.257 17.9756 365.644 17.9959 365.025 18.0151C364.774 18.0233 364.571 17.9878 364.518 17.9279C364.491 17.8945 364.438 17.861 364.438 17.8276C364.438 17.7667 364.145 17.7333 363.931 17.7404C363.579 17.7505 363.222 17.7586 362.875 17.7738C362.593 17.786 362.353 17.7738 362.161 17.7373C361.937 17.6958 361.681 17.7039 361.425 17.715C361.233 17.7231 361.179 17.7566 361.19 17.8407C361.2 17.9087 361.11 17.93 360.763 17.9411C360.326 17.9553 359.883 17.9695 359.44 17.9807C359.371 17.9827 359.291 17.9655 359.222 17.9563C359.072 17.9381 358.939 17.9087 358.779 17.9026C358.619 17.8955 358.432 17.9107 358.256 17.9168C358.08 17.9219 357.894 17.9361 357.733 17.929C357.573 17.9219 357.44 17.8915 357.296 17.8722C357.227 17.8631 357.141 17.8499 357.072 17.8519C356.72 17.86 356.368 17.8722 356.016 17.8833C355.621 17.8955 355.621 17.8955 355.061 17.8326C354.805 17.8043 354.549 17.8266 354.299 17.8347C354.032 17.8428 353.781 17.8468 353.573 17.8063C353.434 17.7799 353.28 17.7637 353.114 17.7688C352.672 17.7809 352.234 17.7961 351.792 17.8083C351.717 17.8103 351.616 17.8053 351.557 17.7961C351.274 17.7536 350.997 17.7201 350.602 17.7414C350.261 17.7596 349.893 17.7607 349.552 17.7779C349.365 17.787 349.279 17.8195 349.317 17.8448C349.338 17.858 349.45 17.8732 349.525 17.8732C349.695 17.8742 349.882 17.859 350.042 17.8651C350.373 17.8772 350.538 17.9624 350.97 17.9391C351.226 17.9249 351.493 17.9198 351.76 17.9158C351.829 17.9148 351.904 17.934 351.978 17.9442C352.192 17.9715 352.378 18.007 352.688 17.9888C352.944 17.9746 353.216 17.9705 353.477 17.9624C353.893 17.9492 353.893 17.9503 354.432 18.0121C354.688 18.0415 354.944 18.0182 355.195 18.0111C355.381 18.006 355.557 17.9959 355.707 18.0101C355.936 18.0314 356.101 18.08 356.384 18.077C356.651 18.0739 356.912 18.0598 357.179 18.0547C357.344 18.0516 357.499 18.0679 357.632 18.0952C357.771 18.1226 357.92 18.1348 358.102 18.1287C358.363 18.1206 358.63 18.1104 358.896 18.1054C358.971 18.1044 359.056 18.1135 359.126 18.1216C359.275 18.1399 359.419 18.1611 359.563 18.1804C359.824 18.1743 360.091 18.1723 360.347 18.1601C360.544 18.151 360.683 18.1551 360.843 18.1753C361.046 18.2027 361.211 18.2514 361.542 18.2281C361.707 18.2169 361.899 18.22 362.065 18.2098C362.267 18.1966 362.406 18.2017 362.55 18.2321C362.822 18.2899 363.163 18.2909 363.515 18.2686C363.899 18.2443 364.188 18.2727 364.476 18.3173C364.78 18.3639 364.78 18.3629 365.014 18.4755C365.084 18.5079 365.281 18.5231 365.446 18.517C365.724 18.5069 365.964 18.512 366.166 18.5505C366.38 18.5921 366.636 18.587 366.897 18.5758C367.244 18.5606 367.59 18.5475 367.873 18.6063C368.012 18.6347 368.161 18.6417 368.348 18.6346C368.876 18.6164 369.409 18.6052 369.927 18.5829C370.241 18.5687 370.423 18.6012 370.636 18.6286C370.924 18.6661 371.239 18.6995 371.239 18.7796C371.239 18.7928 371.313 18.808 371.377 18.8182C371.516 18.8395 371.665 18.8577 371.81 18.878C372.023 18.9084 372.231 18.9338 372.524 18.9175C372.78 18.9043 373.052 18.9003 373.314 18.8912C373.575 18.882 373.815 18.877 374.05 18.9155C374.322 18.9591 374.61 19.0007 374.919 19.0331C375.138 19.0564 375.426 19.0169 375.66 19.0483C375.805 19.0676 375.943 19.0899 376.098 19.1061C376.162 19.1132 376.263 19.1081 376.349 19.1061C376.525 19.1021 376.706 19.099 376.877 19.0889C377.074 19.0777 377.223 19.0798 377.373 19.1031C377.511 19.1244 377.65 19.1538 377.81 19.1599C378.05 19.169 378.317 19.1284 378.557 19.1751C378.679 19.1984 378.834 19.2207 378.994 19.2278C379.154 19.2349 379.341 19.2197 379.512 19.2207C379.586 19.2207 379.677 19.2369 379.719 19.2501C379.746 19.2572 379.709 19.2765 379.672 19.2866C379.624 19.2988 379.554 19.315 379.485 19.317C378.957 19.3353 378.429 19.3505 377.901 19.3677C377.586 19.3779 377.586 19.3778 376.951 19.314C376.802 19.2988 376.637 19.3018 376.45 19.3089C376.199 19.318 375.943 19.3353 375.682 19.317C375.34 19.2481 374.919 19.242 374.471 19.2683C374.284 19.2795 374.114 19.2795 373.975 19.2602C373.682 19.2217 373.372 19.1862 373.111 19.1406C372.908 19.1051 372.812 19.1021 372.727 19.1507C372.7 19.1659 372.674 19.1822 372.679 19.1964C372.711 19.2471 372.77 19.2967 372.802 19.3474C372.812 19.3616 372.77 19.3779 372.743 19.3931C372.658 19.4356 372.546 19.4326 372.359 19.3971C372.172 19.3616 371.948 19.3383 371.649 19.3545C371.393 19.3687 371.116 19.3667 370.86 19.3819C370.465 19.4042 370.188 19.3718 369.905 19.3282C369.847 19.319 369.745 19.314 369.671 19.316C368.876 19.3393 368.087 19.3657 367.292 19.389C367.121 19.3941 366.966 19.3789 366.833 19.3515C366.694 19.3241 366.54 19.3099 366.369 19.315C365.665 19.3363 364.961 19.3555 364.257 19.3819C363.969 19.3931 363.739 19.3799 363.542 19.3444C363.393 19.318 363.254 19.3099 363.067 19.313C362.865 19.316 362.721 19.3261 362.619 19.3555C362.523 19.3839 362.593 19.4012 362.806 19.4235C363.035 19.4478 363.249 19.4792 363.467 19.5076C363.643 19.5036 363.819 19.4955 363.99 19.4965C364.065 19.4965 364.134 19.5147 364.209 19.5249C364.422 19.5543 364.619 19.5837 364.923 19.5675C365.18 19.5533 365.452 19.5502 365.713 19.5411C366.076 19.5299 366.076 19.5299 366.662 19.5938C366.812 19.61 366.972 19.609 367.164 19.5999C367.329 19.5928 367.5 19.607 367.617 19.6374C367.665 19.6496 367.649 19.6699 367.548 19.7368C367.548 19.7865 367.66 19.7642 367.697 19.7317C367.756 19.6851 367.644 19.6699 367.43 19.6952C367.281 19.7135 367.206 19.7398 367.244 19.7611C367.265 19.7723 367.366 19.7865 367.548 19.7368C368.017 19.6759 368.375 19.6688 368.716 19.6526C368.919 19.6435 369.047 19.6475 369.207 19.6739C369.399 19.7053 369.591 19.7388 369.905 19.7226C370.247 19.7043 370.609 19.7023 370.956 19.6871C371.276 19.6729 371.441 19.7175 371.644 19.7439C371.889 19.7753 372.161 19.7398 372.385 19.7581C372.62 19.7763 372.786 19.8209 373.058 19.829C373.452 19.8017 373.703 19.8524 374.002 19.8858C374.236 19.9112 374.514 19.8889 374.764 19.8777C375.047 19.8655 375.282 19.8767 375.479 19.9132C375.703 19.9548 375.954 19.9456 376.21 19.9365C376.807 19.9162 376.829 19.9132 377.175 19.969C377.426 20.0095 377.666 19.9913 377.917 19.9862C378.135 20.0136 378.349 20.043 378.578 20.0673C378.637 20.0734 378.749 20.0633 378.839 20.0602C379.101 20.0521 379.367 20.044 379.629 20.0359C379.805 20.0308 379.992 20.0156 380.152 20.0217C380.312 20.0288 380.445 20.0582 380.589 20.0775C380.733 20.0967 380.882 20.116 381.021 20.1363C381.234 20.1667 381.437 20.192 381.736 20.1768C381.992 20.1636 382.258 20.1596 382.525 20.1505C382.861 20.1393 382.85 20.1423 383.474 20.2032C383.811 20.2366 384.157 20.1961 384.499 20.192C384.669 20.19 384.835 20.2012 384.952 20.2306C385 20.2427 384.984 20.263 385 20.2802C384.12 20.3076 383.234 20.3309 382.365 20.3644C382.029 20.3776 381.853 20.3411 381.672 20.3106C381.373 20.262 380.978 20.333 380.696 20.2701C380.525 20.2326 380.28 20.2113 379.986 20.2295C379.815 20.2397 379.634 20.2387 379.458 20.2478C379.01 20.2701 378.599 20.2711 378.242 20.2011C378.119 20.1768 377.943 20.1636 377.815 20.1403C377.666 20.115 377.522 20.1008 377.346 20.1058C376.551 20.1302 375.762 20.1545 374.972 20.1809C374.903 20.1829 374.834 20.1981 374.775 20.2093C374.626 20.2376 374.674 20.26 374.914 20.2782C374.994 20.2843 375.058 20.2975 375.132 20.3076C375.276 20.3269 375.41 20.3573 375.57 20.3644C375.73 20.3715 375.917 20.3573 376.093 20.3522C376.269 20.3472 376.455 20.3319 376.615 20.338C376.775 20.3451 376.909 20.3745 377.058 20.3928C377.127 20.4019 377.213 20.4171 377.282 20.4161C377.634 20.41 377.981 20.3989 378.333 20.3897C378.551 20.4171 378.738 20.4567 378.999 20.4658C379.165 20.4719 379.341 20.4607 379.512 20.4627C379.586 20.4637 379.682 20.479 379.719 20.4921C379.741 20.5003 379.671 20.5205 379.618 20.5307C379.415 20.5692 379.138 20.5621 378.887 20.5743C378.615 20.5874 378.37 20.5834 378.162 20.5439C378.023 20.5175 377.869 20.5033 377.698 20.5084C377.255 20.5216 376.818 20.5368 376.375 20.5479C376.3 20.5499 376.21 20.5408 376.141 20.5337C375.58 20.4719 375.58 20.4698 375.186 20.483C374.604 20.5023 374.604 20.5023 374.215 20.4485C374.14 20.4384 374.06 20.4191 373.996 20.4202C373.378 20.4364 372.764 20.4526 372.151 20.4759C371.948 20.483 371.809 20.483 371.66 20.4567C371.532 20.4344 371.383 20.409 371.223 20.4029C371.057 20.3968 370.876 20.412 370.7 20.4171C370.524 20.4222 370.337 20.4354 370.183 20.4273C370.023 20.4191 369.884 20.3908 369.745 20.3705C369.601 20.3492 369.447 20.3502 369.249 20.3583C368.641 20.3816 368.636 20.3786 368.033 20.3157C367.964 20.3086 367.873 20.3005 367.798 20.3025C367.356 20.3147 366.918 20.3299 366.476 20.3421C366.305 20.3472 366.14 20.334 366.022 20.3046C365.974 20.2924 365.99 20.2721 365.958 20.2326C365.921 20.2234 365.964 20.2397 365.974 20.2549C366.054 20.2529 366.15 20.2549 366.209 20.2468C366.358 20.2275 366.433 20.2022 366.396 20.1809C366.374 20.1697 366.273 20.1555 366.209 20.1555C366.092 20.1555 365.99 20.1778 365.958 20.2326C365.622 20.266 365.265 20.2731 364.918 20.2894C364.715 20.2995 364.587 20.2944 364.427 20.2681C364.235 20.2356 364.038 20.2042 363.723 20.2204C363.382 20.2387 363.019 20.2417 362.667 20.2559C362.262 20.2721 362.086 20.1809 361.745 20.1829C361.393 20.1849 361.04 20.2022 360.688 20.2143C360.379 20.2245 360.379 20.2245 359.739 20.1586C359.504 20.1342 359.227 20.1697 358.998 20.1444C358.843 20.1281 358.71 20.1038 358.56 20.0866C358.496 20.0795 358.395 20.0795 358.315 20.0815C357.872 20.0937 357.424 20.1018 356.997 20.1241C356.512 20.1505 356.144 20.1221 355.797 20.0622C355.36 20.0734 354.917 20.0795 354.485 20.0987C354.171 20.1129 353.989 20.0795 353.776 20.0521C353.701 20.043 353.637 20.0278 353.557 20.0237C353.477 20.0197 353.381 20.0278 353.296 20.0308C352.944 20.042 352.581 20.047 352.24 20.0653C351.818 20.0886 351.658 20.0055 351.333 19.9953C351.114 20.045 350.997 20.1129 350.565 20.118C350.213 20.1221 349.861 20.1383 349.509 20.1494C349.333 20.1545 349.157 20.1606 348.981 20.1657C348.698 20.1748 348.565 20.2143 348.623 20.2752C348.655 20.3086 348.682 20.3421 348.709 20.3755C348.762 20.4354 348.629 20.4861 348.405 20.4932C347.786 20.5124 347.173 20.5327 346.554 20.5499C346.388 20.555 346.228 20.5378 346.095 20.5104C345.956 20.483 345.802 20.4708 345.631 20.4759C345.012 20.4952 344.399 20.5155 343.78 20.5327C343.711 20.5347 343.62 20.5246 343.551 20.5165C343.402 20.4982 343.258 20.4769 343.114 20.4577C342.762 20.4668 342.415 20.4729 342.068 20.485C341.508 20.5033 341.508 20.5043 341.097 20.4485C341.023 20.4384 340.948 20.4191 340.879 20.4202C340.612 20.4242 340.351 20.4344 340.084 20.4435C339.3 20.4698 339.3 20.4698 339.07 20.4394C338.862 20.411 338.676 20.3766 338.361 20.3928C338.02 20.411 337.657 20.4171 337.305 20.4273C337.044 20.4343 336.782 20.4425 336.521 20.4445C336.452 20.4455 336.377 20.4262 336.302 20.4161C336.089 20.3847 335.881 20.3593 335.587 20.3766C335.417 20.3867 335.235 20.3887 335.059 20.3938C334.601 20.408 334.601 20.408 333.849 20.3471C333.774 20.3411 333.683 20.334 333.609 20.337C332.99 20.3553 332.377 20.3755 331.758 20.3928C331.683 20.3948 331.593 20.3887 331.518 20.3836C330.675 20.3248 330.675 20.3248 329.779 20.3532C329.438 20.3634 329.427 20.3674 329.07 20.3137C328.91 20.2904 328.776 20.2792 328.59 20.2863C327.886 20.3106 327.176 20.3269 326.477 20.3553C326.163 20.3674 325.981 20.337 325.768 20.3096C325.693 20.3005 325.613 20.2802 325.549 20.2813C324.845 20.3005 324.141 20.3238 323.437 20.3431C323.373 20.3451 323.293 20.3248 323.218 20.3157C323.074 20.2975 322.936 20.2701 322.776 20.264C322.61 20.2579 322.429 20.2731 322.248 20.2782C321.805 20.2914 321.805 20.2904 321.293 20.2306C321.224 20.2224 321.133 20.2113 321.064 20.2133C320.359 20.2336 319.65 20.2508 318.951 20.2802C318.551 20.2965 318.279 20.2671 317.997 20.2245C317.938 20.2153 317.837 20.2113 317.762 20.2133C316.967 20.2366 316.178 20.263 315.383 20.2863C315.218 20.2914 315.058 20.2741 314.924 20.2478C314.711 20.2062 314.46 20.2113 314.194 20.2204C313.58 20.2417 313.575 20.2407 313.212 20.192C313.138 20.1819 313.074 20.1687 312.994 20.1636C312.919 20.1586 312.823 20.1616 312.743 20.1636C312.391 20.1738 312.039 20.1849 311.687 20.1961C311.335 20.2072 310.977 20.2133 310.631 20.2306C310.204 20.2519 310.001 20.1859 309.702 20.1555C309.265 20.1687 308.817 20.1768 308.385 20.1981C308.054 20.2143 307.9 20.1697 307.681 20.1464C307.606 20.1383 307.526 20.121 307.457 20.1231C306.662 20.1454 305.868 20.1697 305.078 20.1971C304.886 20.2032 304.758 20.1951 304.598 20.1707C304.241 20.116 304.225 20.118 303.627 20.1383C303.366 20.1474 303.115 20.1555 302.891 20.114C302.694 20.0764 302.454 20.0673 302.171 20.0795C301.825 20.0947 301.467 20.1028 301.115 20.1129C300.763 20.1241 300.411 20.1393 300.059 20.1444C299.776 20.1494 299.606 20.1018 299.382 20.0775C299.312 20.0704 299.216 20.0693 299.136 20.0714C298.784 20.0805 298.422 20.0876 298.08 20.1048C297.664 20.1261 297.435 20.0704 297.141 20.0379C297.077 20.0308 296.971 20.0349 296.891 20.0379C296.272 20.0562 295.659 20.0764 295.04 20.0957C294.821 20.0683 294.597 20.042 294.378 20.0146C294.026 20.0247 293.674 20.0359 293.322 20.046C293.056 20.0541 292.784 20.0572 292.533 20.0724C292.208 20.0927 292.048 20.045 291.829 20.0217C291.754 20.0136 291.674 19.9963 291.605 19.9984C291.162 20.0095 290.719 20.0217 290.282 20.0389C289.866 20.0562 289.701 19.9649 289.359 19.9659C289.007 19.9669 288.645 19.9801 288.303 19.9984C287.909 20.0197 287.631 19.9872 287.349 19.9436C287.29 19.9345 287.189 19.9294 287.114 19.9314C286.671 19.9436 286.234 19.9588 285.791 19.971C285.716 19.973 285.626 19.968 285.551 19.9619C284.708 19.902 284.708 19.901 284.34 19.9132C284.079 19.9213 283.812 19.9314 283.546 19.9365C283.471 19.9385 283.38 19.9294 283.311 19.9213C282.756 19.8595 282.756 19.8584 282.356 19.8706C282.004 19.8818 281.652 19.8929 281.3 19.9041C281.081 19.8767 280.857 19.8503 280.639 19.823C280.201 19.8361 279.753 19.8463 279.321 19.8645C279.118 19.8726 278.985 19.8696 278.83 19.8442C278.638 19.8138 278.446 19.7783 278.126 19.7956C277.785 19.8138 277.422 19.8159 277.076 19.8311C276.66 19.8493 276.489 19.7571 276.153 19.7581C275.801 19.7591 275.438 19.7723 275.097 19.7905C274.702 19.8118 274.425 19.7794 274.142 19.7358C274.083 19.7266 273.982 19.7216 273.907 19.7236C272.937 19.753 271.971 19.7824 271 19.8138C270.403 19.8331 270.403 19.8341 269.267 19.7783C269.187 19.7743 269.102 19.7702 269.021 19.7723C268.669 19.7814 268.307 19.7885 267.965 19.8057C267.549 19.827 267.32 19.7723 267.027 19.7388C266.963 19.7317 266.861 19.7358 266.776 19.7378C266.509 19.7449 266.248 19.754 265.981 19.7621C265.629 19.7733 265.277 19.7844 264.925 19.7956C264.706 19.7692 264.482 19.7418 264.264 19.7155C263.826 19.7287 263.378 19.7358 262.946 19.7571C262.616 19.7733 262.461 19.7307 262.242 19.7064C262.168 19.6982 262.088 19.681 262.018 19.682C261.224 19.7043 260.429 19.7276 259.639 19.756C259.314 19.7682 259.165 19.7226 258.946 19.6993C258.871 19.6922 258.786 19.679 258.717 19.681C258.189 19.6952 257.661 19.7124 257.133 19.7297C256.834 19.7398 256.834 19.7398 256.183 19.677C256.108 19.6699 256.023 19.6628 255.948 19.6648C254.274 19.7155 252.604 19.7692 250.929 19.8199C250.759 19.825 250.604 19.8098 250.471 19.7824C250.332 19.755 250.177 19.7408 250.006 19.7459C249.302 19.7672 248.593 19.7865 247.894 19.8128C247.606 19.824 247.377 19.8108 247.18 19.7753C247.03 19.7489 246.892 19.7388 246.705 19.7449C246.353 19.7571 246.001 19.7672 245.649 19.7783C245.297 19.7895 244.945 19.8007 244.593 19.8118C244.241 19.823 243.883 19.829 243.537 19.8463C243.11 19.8676 242.902 19.8047 242.609 19.7733C242.081 19.7885 241.552 19.8037 241.03 19.8199C240.326 19.8412 239.622 19.8645 238.917 19.8848C238.853 19.8868 238.773 19.8686 238.699 19.8595C238.48 19.8341 238.32 19.7986 237.995 19.8098C236.416 19.8635 234.826 19.9091 233.242 19.9619C232.912 19.973 232.768 19.9294 232.544 19.9061C232.469 19.899 232.384 19.8848 232.314 19.8868C231.434 19.9122 230.554 19.9406 229.674 19.9679C229.317 19.9791 229.317 19.9791 228.719 19.9162C228.65 19.9091 228.559 19.9 228.484 19.902C227.338 19.9365 226.196 19.973 225.05 20.0085C224.879 20.0136 224.724 19.9994 224.586 19.972C224.452 19.9446 224.292 19.9294 224.127 19.9345C223.071 19.9669 222.009 19.9984 220.959 20.0339C220.676 20.044 220.441 20.0349 220.238 19.9984C220.094 19.972 219.95 19.9608 219.769 19.9669C218.185 20.0166 216.601 20.0643 215.017 20.117C214.713 20.1271 214.499 20.1079 214.307 20.0744C214.153 20.048 214.019 20.043 213.827 20.047C213.625 20.0521 213.502 20.0633 213.39 20.0937C213.246 20.1332 213.155 20.1829 212.814 20.1859C212.462 20.189 212.104 20.2012 211.758 20.2184C211.427 20.2356 211.272 20.19 211.064 20.1626C210.91 20.1434 210.766 20.1403 210.568 20.1494C210.387 20.1576 210.275 20.1748 210.168 20.2072C209.934 20.2762 209.912 20.2762 209.624 20.2326C209.47 20.2093 209.331 20.191 209.16 20.1951C208.456 20.2153 207.752 20.2376 207.048 20.261C206.643 20.2741 206.637 20.2762 206.333 20.2255C206.184 20.2001 206.04 20.188 205.864 20.194C203.928 20.2549 201.992 20.3137 200.055 20.3776C199.757 20.3877 199.554 20.3664 199.341 20.336C199.271 20.3259 199.202 20.3117 199.122 20.3076C199.042 20.3035 198.951 20.3076 198.866 20.3096C197.458 20.3532 196.044 20.3948 194.641 20.4435C194.321 20.4546 194.151 20.4222 193.932 20.3958C193.857 20.3867 193.793 20.3725 193.713 20.3684C193.633 20.3654 193.537 20.3725 193.452 20.3755C192.044 20.4191 190.631 20.4607 189.228 20.5094C188.892 20.5205 188.748 20.478 188.529 20.4556C188.454 20.4475 188.374 20.4323 188.305 20.4343C187.862 20.4455 187.425 20.4607 186.982 20.4739C185.926 20.5073 184.87 20.5388 183.814 20.5733C183.408 20.5864 183.232 20.4962 182.891 20.5003C182.448 20.5053 182.011 20.5256 181.568 20.5398C181.216 20.5509 180.864 20.5611 180.512 20.5733C180.166 20.5844 180.165 20.5844 179.301 20.5256C179.227 20.5205 179.136 20.5134 179.061 20.5155C177.829 20.553 176.592 20.5905 175.365 20.6311C175.082 20.6402 174.848 20.6351 174.645 20.5976C174.501 20.5712 174.352 20.558 174.176 20.5641C172.325 20.6219 170.479 20.6797 168.628 20.7365C168.559 20.7385 168.468 20.7284 168.399 20.7203C168.25 20.702 168.106 20.6807 167.962 20.6615C167.855 20.6848 167.716 20.7061 167.647 20.7324C167.551 20.7679 167.423 20.7781 167.22 20.7842C167.018 20.7902 166.89 20.7882 166.73 20.7618C166.538 20.7294 166.34 20.704 166.026 20.7142C164.089 20.7781 162.153 20.8359 160.217 20.8987C159.897 20.9089 159.748 20.8642 159.524 20.8409C159.449 20.8338 159.364 20.8227 159.294 20.8247C158.5 20.848 157.71 20.8734 156.915 20.8977C154.713 20.9667 152.51 21.0326 150.312 21.1056C149.912 21.1187 149.64 21.0934 149.357 21.0498C149.299 21.0407 149.197 21.0356 149.123 21.0376C146.04 21.1329 142.957 21.2293 139.879 21.3256C139.714 21.3306 139.554 21.3144 139.42 21.2881C139.282 21.2607 139.127 21.2475 138.957 21.2526C137.548 21.2962 136.14 21.3398 134.732 21.3844C134.38 21.3955 134.375 21.3966 134.012 21.3479C133.937 21.3377 133.857 21.3185 133.799 21.3205C133.676 21.3256 133.559 21.3509 133.473 21.3854C133.388 21.4219 133.255 21.432 133.057 21.4391C132.855 21.4462 132.721 21.4432 132.567 21.4189C132.369 21.3884 132.188 21.359 131.868 21.3692C127.819 21.499 123.771 21.6237 119.723 21.7524C119.397 21.7626 119.248 21.72 119.024 21.6967C118.949 21.6896 118.875 21.6794 118.795 21.6774C118.709 21.6754 118.619 21.6815 118.533 21.6845C111.93 21.8903 105.327 22.0972 98.7236 22.303C98.3289 22.3152 98.3342 22.3152 97.9022 22.4084C97.8488 22.4196 97.7794 22.4348 97.7048 22.4368C95.6832 22.5017 93.6564 22.5646 91.6296 22.6274C90.7495 22.6548 89.8695 22.6832 88.9894 22.7096C88.6747 22.7187 88.6747 22.7187 87.9226 22.8282C87.8586 22.8373 87.7839 22.8495 87.7092 22.8515C84.1889 22.962 80.6685 23.0726 77.1429 23.1811C76.8655 23.1892 76.6415 23.2074 76.5135 23.2561C76.4229 23.2906 76.3055 23.3108 76.1295 23.3169C73.6653 23.394 71.2011 23.472 68.7316 23.5471C68.4382 23.5562 68.2621 23.5846 68.1181 23.6272C68.0701 23.6414 68.0274 23.6576 67.9581 23.6677C67.8941 23.6769 67.7981 23.6799 67.7181 23.6829C65.6059 23.7488 63.4938 23.8168 61.3762 23.8796C61.0615 23.8888 60.9335 23.9263 60.7788 23.9658C60.7254 23.979 60.6881 23.9973 60.6187 24.0064C60.5494 24.0145 60.4481 24.0145 60.3627 24.0165C58.6026 24.0713 56.8425 24.127 55.0823 24.1818C54.7409 24.1767 54.6662 24.2355 54.5009 24.271C54.4422 24.2832 54.3996 24.2994 54.3303 24.3075C54.2556 24.3156 54.1595 24.3146 54.0688 24.3166C52.6607 24.3602 51.2526 24.4069 49.8391 24.4474C49.5138 24.4566 49.4497 24.5083 49.2737 24.5438C49.215 24.5549 49.1564 24.5721 49.0871 24.5752C48.207 24.6046 47.327 24.632 46.4469 24.6583C46.1535 24.6674 46.1535 24.6664 45.6361 24.7668C45.5775 24.778 45.5081 24.7901 45.4334 24.7932C44.1159 24.8358 42.7932 24.8763 41.4704 24.9179C41.2997 24.923 41.1824 24.9473 41.0971 24.9818C41.0117 25.0162 40.8891 25.0385 40.7184 25.0436C39.6623 25.0771 38.6061 25.1115 37.55 25.142C37.2566 25.1501 37.0647 25.1754 36.9367 25.2211C36.8406 25.2555 36.7233 25.2728 36.5366 25.2788C35.4805 25.3113 34.4245 25.3468 33.363 25.3752C33.0537 25.3833 32.8936 25.4178 32.7656 25.4603C32.6642 25.4948 32.5469 25.507 32.3495 25.5131C30.4134 25.5719 28.4719 25.6307 26.5411 25.6956C26.2157 25.7067 26.0503 25.6712 25.837 25.6459C25.5329 25.6104 25.2503 25.5719 25.2503 25.4928C25.2503 25.4806 25.1596 25.4664 25.0956 25.4563C24.6209 25.3802 24.6209 25.3802 24.5462 25.2991C24.5035 25.2494 24.4556 25.1987 24.4182 25.1481C24.3489 25.0649 24.1781 25.0436 23.6874 25.0588C23.5114 25.0639 23.3354 25.071 23.1594 25.075C22.898 25.0821 22.7007 25.0487 22.6527 24.9878C22.626 24.9544 22.5941 24.9209 22.5674 24.8875C22.8341 24.8794 22.8287 24.8784 23.2981 24.7557C23.4954 24.704 23.4955 24.704 23.1168 24.6522C22.9728 24.633 22.8341 24.6117 22.6794 24.5934C22.61 24.5853 22.5194 24.5803 22.4447 24.5823C22.002 24.5944 21.5647 24.6086 21.1273 24.6228C20.4232 24.6451 20.4231 24.6451 19.7084 24.5417C19.6497 24.5336 19.5591 24.5184 19.5697 24.5103C19.6284 24.4728 19.7724 24.4566 19.9537 24.4525C20.2204 24.4464 20.4818 24.4363 20.7431 24.4282C20.9192 24.4231 21.0952 24.417 21.2712 24.4119C21.4365 24.3734 21.6073 24.3359 21.762 24.2964C22.0073 24.2355 22.0073 24.2335 21.6712 24.1909C21.4579 24.1625 21.2285 24.1372 21.0098 24.1108C20.7485 24.1189 20.4818 24.128 20.2204 24.1351C19.8897 24.1443 19.7564 24.125 19.671 24.0591C19.5964 24.0013 19.687 23.9516 19.9431 23.9395C20.2044 23.9273 20.4499 23.9192 20.5832 23.8675C20.7112 23.8178 20.9352 23.7985 21.2126 23.7945C21.3886 23.7914 21.5646 23.7843 21.7406 23.7783C21.97 23.7701 22.0927 23.7184 22.0447 23.6606C22.018 23.6231 21.9647 23.5917 21.7566 23.5836C20.8339 23.5481 20.8232 23.5491 20.3645 23.4802C20.3218 23.4741 20.2899 23.4558 20.3059 23.4467C20.3325 23.4315 20.3912 23.4092 20.4552 23.4061C21.0686 23.3838 21.682 23.3636 22.2954 23.3484C22.4981 23.3433 22.6474 23.3362 22.7168 23.2987C22.8128 23.2469 22.7701 23.1993 22.5834 23.1638C22.5247 23.1527 22.4286 23.1385 22.3646 23.1395C21.6606 23.1577 20.9619 23.181 20.2578 23.1993C20.1938 23.2013 20.0765 23.1841 20.0499 23.1709C19.9965 23.1466 20.0765 23.1141 20.2632 23.103C20.5085 23.0878 20.7592 23.0868 20.9245 23.0361C21.1539 22.9641 21.4366 22.8982 21.6926 22.8292C21.7352 22.8171 21.8047 22.7937 21.7887 22.7917C21.6553 22.7694 21.5006 22.7522 21.3619 22.7309C21.1273 22.6954 21.1272 22.6457 21.1806 22.5981C21.2232 22.5595 21.3832 22.5443 21.5806 22.5443C21.6659 22.5443 21.7726 22.5443 21.8419 22.5352C22.0233 22.5129 22.082 22.4845 21.9913 22.4632C21.938 22.451 21.842 22.4338 21.778 22.4358C20.6366 22.4693 19.4897 22.5017 18.3536 22.5433C18.0176 22.5555 17.863 22.5169 17.6603 22.4896C17.5056 22.4683 17.3615 22.4601 17.1695 22.4754C16.9882 22.4896 16.8122 22.4815 16.7002 22.448C16.6095 22.4206 16.7695 22.3973 17.2015 22.3709C17.2816 22.3659 17.3722 22.3628 17.4309 22.3527C18.0496 22.2432 18.0496 22.2422 18.4763 22.228C18.8923 22.2148 18.8924 22.2138 19.1111 22.155C19.2124 22.1276 19.3244 22.1002 19.4204 22.0718C19.4577 22.0607 19.5218 22.0404 19.5005 22.0343C19.3831 22.0029 19.223 21.9958 19.0363 22.0029C18.6203 22.0201 18.1297 22.0059 17.911 22.1022C17.8256 22.1387 17.6923 22.1489 17.5003 22.155C15.5694 22.2138 13.6385 22.2766 11.7024 22.3334C11.3877 22.3425 11.2437 22.3801 11.1211 22.4216C11.0144 22.4561 10.897 22.4662 10.6943 22.4723C10.4916 22.4784 10.3315 22.4815 10.2142 22.448C10.1449 22.4277 10.2035 22.3993 10.3636 22.3709C10.5929 22.3304 10.5502 22.2797 10.4756 22.232C10.4222 22.2006 10.2569 22.1783 10.0809 22.1803C9.8195 22.1844 9.56888 22.1955 9.35019 22.155C9.22218 22.1316 9.06213 22.1154 8.91812 22.0951C8.64076 22.0536 8.36339 22.011 7.97403 22.0384C7.70733 22.0282 7.52065 21.9917 7.3073 21.9633C6.94993 21.9167 6.91793 21.9096 7.17395 21.8599C7.46198 21.8042 7.23792 21.7311 7.39793 21.6764C7.56861 21.6176 7.80338 21.5659 8.0114 21.5111C8.06474 21.4969 8.11276 21.4838 8.1661 21.4696C8.04342 21.4493 7.93143 21.4239 7.78742 21.4097C7.60074 21.3915 7.50472 21.3692 7.51539 21.3063C7.47805 21.2972 7.49395 21.3205 7.53662 21.3266C7.58462 21.3327 7.70205 21.3276 7.76072 21.3205C7.91007 21.3013 7.98467 21.2759 7.94733 21.2546C7.92599 21.2435 7.82473 21.2293 7.76072 21.2293C7.64338 21.2293 7.54205 21.2516 7.51005 21.3063C6.91266 21.3479 6.29384 21.3682 5.67512 21.3844C5.61111 21.3864 5.53115 21.3661 5.45648 21.356C5.21113 21.3215 5.21109 21.3225 4.49103 21.3124C4.41636 21.3114 4.31507 21.2972 4.27773 21.283C4.12305 21.2212 4.12842 21.1532 4.05375 21.0873C4.19243 21.0447 4.331 21.0032 4.47501 20.9616C4.76304 20.8774 5.13649 20.8034 5.36051 20.7112C5.3125 20.6615 5.24849 20.6118 5.48318 20.5712C6.1499 20.5205 6.14461 20.5205 6.32596 20.4719C6.84334 20.334 7.35535 20.1951 7.89407 20.0592C8.03808 20.0237 8.0381 20.0045 7.78208 19.9892C7.70207 19.9852 7.61662 19.9842 7.53128 19.9862C7.26459 19.9933 6.9979 20.0115 6.73654 20.0075C6.47519 20.0044 6.28317 19.9598 6.06982 19.9325C5.85113 19.9041 5.63245 19.8747 5.41377 19.8453C5.16308 19.8483 4.91244 19.8767 4.66175 19.8311C4.46973 19.7956 4.22972 19.7702 4.01104 19.7408C4.17639 19.6638 4.48579 19.605 4.72582 19.537C4.9445 19.4752 4.94972 19.4762 5.53644 19.4285C5.81379 19.4062 5.90981 19.2917 5.67512 19.2582C5.39243 19.2176 5.0938 19.1801 4.80577 19.1416C4.55508 19.1446 4.29911 19.172 4.05909 19.1264C3.87241 19.0919 3.65901 19.0686 3.34965 19.0818C2.82694 19.1041 2.29357 19.1152 1.76552 19.1335C1.58417 19.1396 1.38677 19.1355 1.30676 19.1011C1.25342 19.0767 1.40811 19.0433 1.58413 19.0362C1.85082 19.026 2.09081 19.0139 2.22416 18.9632C2.35217 18.9125 2.58683 18.8972 2.86419 18.8902C2.93886 18.8881 3.02427 18.876 3.0616 18.8638C3.25362 18.805 3.46699 18.7543 3.87769 18.7563C4.04837 18.736 4.13899 18.7107 4.08565 18.6864C4.05365 18.6732 3.9417 18.6559 3.87769 18.658C3.43499 18.6681 2.9923 18.6783 2.56026 18.6965C2.35757 18.7046 2.20281 18.7066 2.0748 18.6762C1.98412 18.6559 2.03212 18.6286 2.2028 18.5992C2.35215 18.5738 2.39487 18.5444 2.3842 18.5099C2.35753 18.4298 2.19748 18.4065 1.68544 18.4116C1.3174 18.4156 1.22672 18.4025 1.14672 18.3335C1.12538 18.3173 1.07214 18.295 1.10947 18.2838C1.33883 18.2149 1.48819 18.1297 1.92022 18.0973C2.09091 18.0851 2.27218 18.0851 2.37886 18.0587C2.48554 18.0324 2.58159 18.002 2.6936 17.9766C2.83228 17.9462 2.9282 17.9178 2.86419 17.8986C2.75751 17.8641 2.58689 17.861 2.38954 17.8732C2.21886 17.8833 2.03751 17.8843 1.8615 17.8904C1.5468 17.9016 1.29083 17.8752 1.2535 17.8306C1.15216 17.713 1.04545 17.5964 0.954773 17.4788C0.944106 17.4646 0.970702 17.4463 1.01337 17.4342C1.16272 17.3916 1.3228 17.351 1.47748 17.3095C1.65883 17.2618 1.9469 17.2709 2.19225 17.2618C2.53895 17.2486 2.53883 17.2496 3.00287 17.1523C3.18422 17.1138 3.49893 17.129 3.68562 17.0945C3.74429 17.0834 3.83497 17.0651 3.81896 17.055C3.79763 17.0418 3.69101 17.0316 3.611 17.0256C3.53633 17.0195 3.44567 17.0164 3.36567 17.0195C2.39491 17.0489 1.42952 17.0803 0.458765 17.1087C0.293417 17.1138 0.112062 17.0915 0.0533902 17.06C-0.00528171 17.0306 0.0106676 16.9951 1.21185e-08 16.9617C0.154681 16.9201 0.330629 16.8816 0.463974 16.837C0.565317 16.8025 0.682681 16.7873 0.885366 16.7853C1.15206 16.7822 1.41344 16.7701 1.71213 16.7609C2.26685 16.6129 2.81086 16.4578 3.40825 16.3097C3.64827 16.2499 3.58969 16.1891 3.6377 16.1252C3.6857 16.0664 4.04305 16.0755 4.28307 16.0583C4.47509 16.0441 4.53901 16.0116 4.46433 15.9893C4.42166 15.9762 4.32571 15.9609 4.25103 15.9609C4.07502 15.9609 3.89901 15.9701 3.72299 15.9751C3.54698 15.9802 3.3443 15.9772 3.20029 15.9944C3.06161 16.0106 2.97088 16.0451 2.88021 16.0745C2.77886 16.1069 2.64561 16.1181 2.44293 16.1201C2.18157 16.1222 1.92023 16.1313 1.65887 16.1384C1.37085 16.0988 1.07209 16.0603 0.794733 16.0187C0.741395 16.0106 0.73067 15.9873 0.736004 15.9721C0.746671 15.9326 0.666685 15.9082 0.490669 15.889C0.341322 15.8727 0.218634 15.8494 0.0799551 15.8291C0.186631 15.8018 0.304017 15.7754 0.389358 15.746C0.576041 15.6841 0.810755 15.6395 1.21613 15.6416C1.37614 15.602 1.50411 15.5534 1.71213 15.526C1.90948 15.4996 2.24553 15.526 2.39488 15.4662C2.46955 15.4367 2.58162 15.4033 2.72564 15.3911C2.95499 15.3719 3.25368 15.382 3.38702 15.3252C3.46703 15.2928 3.58433 15.2634 3.73901 15.2553C3.91502 15.2461 4.09633 15.2441 4.22434 15.2249C4.29368 15.2147 4.36836 15.1985 4.36836 15.1843C4.36836 15.1752 4.26177 15.161 4.1871 15.1549C4.11776 15.1478 4.02698 15.1427 3.94697 15.1447C3.68028 15.1508 3.41893 15.162 3.15224 15.1681C3.07756 15.1701 2.99225 15.163 2.91224 15.1569C2.67755 15.1407 2.69352 15.1204 2.88021 15.0839C3.06689 15.0484 3.20031 15.0028 3.35499 14.9612C3.52567 14.9541 3.73899 14.9572 3.85634 14.9379C4.05369 14.9065 4.19233 14.8608 4.35234 14.8213C4.52836 14.8152 4.7097 14.8132 4.87505 14.802C4.94439 14.798 4.97642 14.7757 5.03509 14.7625C5.14177 14.7372 5.23251 14.7007 5.37653 14.6885C5.61121 14.6702 5.89923 14.6773 6.03791 14.6216C6.11792 14.5891 6.24055 14.5547 6.3899 14.5526C6.80594 14.5486 6.98196 14.4928 7.19531 14.4401C7.35532 14.4005 7.6967 14.4208 7.87271 14.3813C7.99006 14.3559 8.07545 14.3245 8.19279 14.3001C8.2408 14.29 8.3421 14.2849 8.42211 14.2819C8.85948 14.2667 9.30218 14.2555 9.73955 14.2393C9.80889 14.2363 9.87295 14.2211 9.92628 14.2089C10.0383 14.1825 10.1076 14.146 10.2462 14.1288C10.3849 14.1116 10.5822 14.1116 10.7529 14.1065C11.3023 14.0913 11.345 14.0953 11.5957 14.0092C11.7984 13.9392 12.2945 13.9889 12.4598 13.9118C12.5559 13.8672 12.7318 13.8307 13.0465 13.8256C13.4892 13.8185 13.9266 13.7993 14.3693 13.7861C14.764 13.7739 14.7586 13.7739 15.1854 13.6796C15.3774 13.637 15.6601 13.6431 15.9108 13.635C16.1775 13.6269 16.4228 13.6148 16.5508 13.5641C16.6789 13.5144 16.9135 13.4981 17.1855 13.491C17.4362 13.4839 17.719 13.489 17.9163 13.4485C18.3964 13.3511 18.391 13.3501 18.7271 13.34C19.2551 13.3238 19.7832 13.3075 20.3112 13.2903C20.6632 13.2791 21.0313 13.2771 21.3619 13.2548C21.602 13.2386 21.7086 13.1818 21.8633 13.1423C22.3007 13.1271 22.738 13.1118 23.1754 13.0976C23.7888 13.0774 24.4075 13.0591 25.0262 13.0399C25.2929 13.0013 25.3303 12.9162 25.7784 12.9121C26.0451 12.9101 26.3064 12.8969 26.5731 12.8888C27.0158 12.8746 27.4532 12.8563 27.8959 12.8492C28.2319 12.8442 28.2905 12.7894 28.4665 12.7549C28.5252 12.7428 28.5786 12.7255 28.6479 12.7225C29.3413 12.6941 30.056 12.688 30.7334 12.6465C30.8027 12.6424 30.8667 12.6211 30.8827 12.6059C30.8934 12.5978 30.8027 12.5826 30.744 12.5755C30.6747 12.5674 30.5841 12.5593 30.5094 12.5613C28.3065 12.6292 26.1037 12.6982 23.9008 12.7661C23.5915 12.7762 23.5915 12.7752 22.8394 12.8868C22.7754 12.8959 22.7007 12.906 22.6207 12.9091C22.2686 12.9212 21.9113 12.9283 21.5646 12.9435C21.2819 12.9557 21.0473 12.9435 20.8446 12.907C20.7006 12.8807 20.5512 12.8726 20.3698 12.8746C20.1671 12.8776 20.0338 12.8888 19.9165 12.9162C19.7618 12.9537 19.6818 13.0023 19.3564 13.0125C17.8576 13.0561 16.3587 13.1047 14.8653 13.1514C14.6573 13.1372 14.5559 13.1159 14.6093 13.0906C14.6413 13.0753 14.7053 13.0551 14.7693 13.053C15.3827 13.0317 16.0014 13.0135 16.6148 12.9932C16.7001 12.9902 16.8174 12.9922 16.8654 12.9821C17.1001 12.9364 17.1856 12.8624 17.6283 12.8573C17.8843 12.8543 18.1456 12.8391 18.391 12.8249C18.4603 12.8209 18.5243 12.7996 18.5403 12.7843C18.5457 12.7762 18.4603 12.761 18.3963 12.7539C18.1616 12.7245 17.8897 12.76 17.655 12.7397C17.575 12.7326 17.4629 12.7225 17.4469 12.7103C17.4362 12.6992 17.5269 12.6809 17.5909 12.6698C17.6496 12.6596 17.7295 12.6505 17.8095 12.6475C18.5136 12.6242 19.2178 12.5998 19.9218 12.5816C20.2099 12.5745 20.4125 12.5491 20.5405 12.5025C20.6365 12.468 20.7539 12.4498 20.9352 12.4447C22.1673 12.4072 23.3994 12.3656 24.6369 12.3311C24.9462 12.323 25.1063 12.2896 25.2343 12.246C25.3356 12.2115 25.453 12.1993 25.6504 12.1932C27.4158 12.1405 29.1706 12.0817 30.9361 12.031C31.2615 12.0219 31.3575 11.9783 31.5229 11.9408C31.5816 11.9276 31.6188 11.9114 31.6935 11.9033C31.7682 11.8952 31.8642 11.8962 31.9548 11.8941C33.363 11.8505 34.7712 11.8039 36.1846 11.7633C36.5153 11.7542 36.5792 11.7035 36.7499 11.668C36.8086 11.6569 36.862 11.6386 36.9313 11.6356C37.9874 11.6011 39.0435 11.5687 40.0996 11.5352C40.8036 11.5129 41.5077 11.4906 42.2117 11.4693C42.5584 11.4592 42.5585 11.4581 43.0278 11.3618C43.0812 11.3507 43.1559 11.3375 43.2252 11.3344C45.2521 11.2696 47.2736 11.2077 49.3004 11.1438C49.4711 11.1388 49.5937 11.1154 49.6791 11.081C49.7644 11.0465 49.8872 11.0232 50.0526 11.0181C51.6367 10.9674 53.2208 10.9177 54.8103 10.8701C55.0983 10.862 55.3009 10.8376 55.4289 10.792C55.525 10.7575 55.6423 10.7393 55.8236 10.7342C57.4078 10.6855 58.992 10.6338 60.5815 10.5872C60.8855 10.5781 61.0348 10.5436 61.1842 10.503C61.2375 10.4888 61.2802 10.4655 61.3442 10.4635C62.1336 10.4351 62.9176 10.4057 63.7124 10.3864C64.0431 10.3783 64.1551 10.3357 64.2885 10.2952C64.3951 10.2627 64.5179 10.2516 64.7205 10.2475C65.1632 10.2384 65.6006 10.2212 66.0326 10.2039C66.0966 10.2009 66.1767 10.1786 66.182 10.1644C66.1927 10.138 66.0699 10.1198 65.8673 10.1107C63.7551 10.1766 61.6376 10.2425 59.5254 10.3084C59.1787 10.3195 59.1787 10.3195 58.7093 10.4158C58.656 10.427 58.5812 10.4402 58.5066 10.4432C56.4797 10.5071 54.4583 10.57 52.4314 10.6338C52.2607 10.6389 52.1381 10.6622 52.0527 10.6967C51.9674 10.7312 51.8446 10.7545 51.6793 10.7596C49.7431 10.8204 47.807 10.8822 45.8655 10.94C45.5774 10.9482 45.3748 10.9715 45.2468 11.0181C45.1508 11.0526 45.0334 11.0708 44.8521 11.0759C43.0013 11.1327 41.1557 11.1925 39.2995 11.2472C39.1128 11.2523 38.9742 11.2229 38.9849 11.1955C38.9902 11.1813 39.0701 11.158 39.1341 11.156C40.0995 11.1225 41.0597 11.0881 42.0305 11.0627C42.3558 11.0546 42.4518 11.01 42.6171 10.9725C42.6705 10.9593 42.7132 10.9421 42.7825 10.935C42.8572 10.9269 42.9532 10.9279 43.0438 10.9258C45.3321 10.8539 47.6203 10.7809 49.9139 10.7129C50.2446 10.7028 50.3085 10.6531 50.4792 10.6176C50.5378 10.6054 50.5912 10.5872 50.6605 10.5852C51.3646 10.5608 52.0687 10.5395 52.7727 10.5182C54.0048 10.4797 55.2369 10.4412 56.4744 10.4027C56.8317 10.3915 56.8317 10.3915 57.2904 10.2962C57.3438 10.285 57.4185 10.2709 57.4879 10.2688C60.7468 10.1664 64.0058 10.064 67.2648 9.96262C67.4355 9.95755 67.5581 9.93423 67.6435 9.89976C67.7288 9.8663 67.8514 9.84197 68.0168 9.83588C72.4225 9.69799 76.8229 9.56009 81.2287 9.42423C81.5167 9.4151 81.7193 9.39381 81.8473 9.34615C81.938 9.31168 82.0607 9.29344 82.242 9.28735C87.0851 9.13628 91.9282 8.98521 96.7767 8.83312C100.036 8.73173 103.295 8.62831 106.554 8.52894C106.852 8.51982 107.012 8.48838 107.162 8.44681C107.21 8.43262 107.258 8.40929 107.322 8.40727C108.02 8.38192 108.719 8.3586 109.418 8.33528C109.636 8.36266 109.855 8.38902 110.074 8.4164C110.239 8.37787 110.399 8.33833 110.565 8.2998C111.621 8.27039 112.661 8.22477 113.728 8.21057C113.797 8.20956 113.872 8.22883 113.946 8.23897C114.442 8.30284 114.725 8.29777 115.04 8.2126C115.152 8.18218 115.248 8.15481 115.418 8.14974C115.946 8.13149 116.48 8.11932 117.003 8.09803C117.285 8.08688 117.52 8.09701 117.723 8.13351C117.867 8.15988 118.016 8.17103 118.192 8.16495C119.163 8.13453 120.128 8.10513 121.099 8.07268C121.168 8.07065 121.232 8.05341 121.286 8.04124C121.398 8.01488 121.494 7.9865 121.6 7.95912C121.744 7.97636 121.904 7.98954 122.022 8.01185C122.171 8.03821 122.31 8.0382 122.512 8.03111C126.385 7.90842 130.262 7.78878 134.135 7.66508C134.465 7.65495 134.609 7.69753 134.833 7.71984C134.908 7.72795 134.983 7.73809 135.063 7.74011C135.148 7.74214 135.239 7.73606 135.324 7.73302C138.231 7.64177 141.138 7.55152 144.045 7.46027C144.429 7.4481 144.429 7.4481 145 7.51097C145.069 7.51908 145.16 7.52821 145.234 7.52516C146.557 7.48562 147.88 7.44304 149.197 7.40248C149.368 7.39741 149.512 7.41363 149.667 7.43695C149.971 7.48258 149.992 7.48258 150.216 7.41567C150.323 7.38423 150.435 7.36496 150.611 7.35584C150.803 7.3457 150.958 7.34875 151.107 7.367C151.32 7.39235 151.475 7.43493 151.8 7.42377C153.209 7.37612 154.622 7.33658 156.025 7.28791C156.345 7.27676 156.515 7.31123 156.729 7.33658C156.803 7.3457 156.873 7.3599 156.953 7.36294C157.033 7.36598 157.129 7.35888 157.214 7.35584C158.974 7.30108 160.74 7.24736 162.495 7.18855C162.825 7.1774 162.969 7.22099 163.193 7.24329C163.268 7.2514 163.353 7.26561 163.423 7.26358C164.479 7.23215 165.54 7.19868 166.596 7.16522C166.975 7.15305 166.975 7.15407 167.551 7.21591C167.62 7.22403 167.711 7.23214 167.786 7.23011C169.018 7.1926 170.255 7.15407 171.487 7.11554C171.866 7.10337 171.866 7.10337 172.96 7.1561C173.04 7.16015 173.125 7.16624 173.205 7.16422C174.613 7.12062 176.026 7.07803 177.435 7.03139C177.717 7.02226 177.952 7.03037 178.155 7.06687C178.299 7.09323 178.448 7.10439 178.624 7.09831C180.208 7.04863 181.798 7.00097 183.377 6.94825C183.681 6.93811 183.878 6.96041 184.091 6.98981C184.161 6.99995 184.23 7.01415 184.31 7.01821C184.39 7.02226 184.481 7.0182 184.566 7.01516C186.15 6.96548 187.74 6.91884 189.318 6.8651C189.638 6.85395 189.809 6.88842 190.022 6.91377C190.097 6.92289 190.177 6.94115 190.241 6.94013C190.86 6.9229 191.479 6.90769 192.092 6.88234C192.423 6.86815 192.567 6.91478 192.791 6.93709C192.865 6.94418 192.951 6.9594 193.02 6.95737C194.343 6.91783 195.666 6.87626 196.983 6.83368C197.17 6.82759 197.308 6.83671 197.458 6.86307C197.655 6.89856 197.885 6.91276 198.173 6.9016C198.786 6.87828 199.405 6.86206 200.023 6.8428C200.386 6.83165 200.386 6.83165 201.495 6.88437C201.575 6.88843 201.661 6.89451 201.741 6.89248C202.797 6.86004 203.858 6.82861 204.909 6.79312C205.192 6.78298 205.426 6.7921 205.629 6.8286C205.773 6.85497 205.917 6.86612 206.098 6.86004C207.069 6.82962 208.035 6.7992 209.006 6.76879C209.358 6.75763 209.71 6.73836 210.062 6.73836C210.318 6.73938 210.504 6.78804 210.734 6.81238C210.798 6.81947 210.904 6.81137 210.99 6.80934C212.222 6.77082 213.459 6.73533 214.686 6.69173C215.006 6.68057 215.177 6.71505 215.39 6.74039C215.465 6.74952 215.545 6.76777 215.609 6.76676C216.051 6.7556 216.489 6.74039 216.932 6.72721C217.46 6.71099 217.993 6.69882 218.516 6.67652C218.942 6.65827 219.102 6.74647 219.444 6.74951C219.705 6.75256 219.972 6.73532 220.233 6.72721C220.761 6.71099 221.289 6.69274 221.817 6.67855C222.004 6.67348 222.148 6.65725 222.207 6.62075C222.217 6.61365 222.127 6.59845 222.068 6.58932C221.359 6.4859 221.359 6.4859 220.644 6.5082C220.201 6.5224 219.764 6.53659 219.321 6.54876C219.246 6.55079 219.161 6.54268 219.086 6.53659C218.873 6.51936 218.894 6.49908 219.076 6.46258C219.257 6.42608 219.396 6.38147 219.55 6.3399C219.769 6.36626 219.983 6.39262 220.201 6.41898C220.377 6.41391 220.553 6.40783 220.729 6.40276C221.609 6.3764 222.489 6.34902 223.369 6.32469C223.433 6.32266 223.513 6.34294 223.588 6.35308C223.801 6.38249 223.994 6.40783 224.303 6.39667C225.092 6.36727 225.887 6.34598 226.676 6.32063C227.023 6.30948 227.023 6.30948 227.631 6.37234C227.701 6.37944 227.791 6.38755 227.866 6.38552C228.661 6.3622 229.45 6.33686 230.245 6.31252C230.415 6.30745 230.581 6.32063 230.703 6.35004C230.751 6.3622 230.741 6.38248 230.943 6.54876C231.573 6.68361 232.005 6.66942 232.442 6.65726C232.629 6.65219 232.794 6.64711 232.917 6.62683C232.981 6.61568 233.061 6.59946 233.061 6.58628C233.061 6.57614 232.944 6.55991 232.869 6.55788C232.341 6.5376 231.84 6.5802 231.322 6.58932C231.082 6.59338 230.874 6.55789 230.831 6.5001C230.821 6.48387 230.805 6.46664 230.789 6.45041C230.773 6.43419 230.762 6.41696 230.746 6.40073C230.538 6.39566 230.415 6.41391 230.325 6.44838C230.25 6.47677 230.143 6.50922 229.999 6.52443C229.855 6.54065 229.658 6.53761 229.482 6.54268C229.311 6.54775 229.125 6.56093 228.965 6.55384C228.805 6.54572 228.677 6.51632 228.527 6.49807C228.458 6.48894 228.373 6.47576 228.303 6.47779C227.69 6.49503 227.082 6.51226 226.474 6.53457C226.154 6.54673 225.994 6.50415 225.791 6.47779C225.631 6.45751 225.471 6.46258 225.444 6.50922C225.375 6.62075 225.62 6.66739 226.164 6.64609C226.612 6.62784 227.018 6.62481 227.37 6.69376C227.418 6.70288 227.53 6.70694 227.599 6.70491C228.036 6.69274 228.469 6.67753 228.906 6.66536C228.986 6.66334 229.071 6.66739 229.146 6.67144C230.234 6.72619 230.234 6.72721 230.602 6.71505C230.778 6.70896 230.949 6.70389 230.933 6.54978C231.269 6.38451 231.802 6.37336 232.32 6.34902C232.656 6.33381 232.8 6.37843 233.018 6.40175C233.093 6.40986 233.173 6.42608 233.242 6.42405C234.389 6.39059 235.531 6.3551 236.672 6.31759C236.864 6.3115 237.003 6.31759 237.152 6.34395C237.344 6.37741 237.557 6.3987 237.861 6.38654C238.469 6.3622 239.088 6.347 239.707 6.32672C240.022 6.31658 240.022 6.31657 240.656 6.37943C240.726 6.38653 240.816 6.39464 240.891 6.39261C241.51 6.37538 242.123 6.35409 242.737 6.33584C242.907 6.33077 243.062 6.34497 243.195 6.37234C243.329 6.39972 243.489 6.41391 243.654 6.40884C244.273 6.39059 244.886 6.37032 245.499 6.35207C245.574 6.35004 245.665 6.35714 245.734 6.36423C246.385 6.4271 246.385 6.42709 246.684 6.41695C247.121 6.40174 247.569 6.39465 248.001 6.37437C248.422 6.35409 248.641 6.41289 248.929 6.44534C249.718 6.42202 250.513 6.40276 251.297 6.37437C251.617 6.3622 251.788 6.39566 252.001 6.42202C252.076 6.43115 252.151 6.45041 252.22 6.4494C252.487 6.44534 252.748 6.43419 253.009 6.42608C253.271 6.41797 253.538 6.40986 253.799 6.40175C254.098 6.43115 254.295 6.5001 254.722 6.47678C254.978 6.46258 255.25 6.45954 255.511 6.45143C255.772 6.44332 256.039 6.43521 256.3 6.4271C256.476 6.42203 256.658 6.41898 256.828 6.40986C257.143 6.39465 257.298 6.44433 257.522 6.46664C257.597 6.47374 257.682 6.4859 257.751 6.48387C258.279 6.46967 258.813 6.45751 259.33 6.43419C259.73 6.41594 260.002 6.44636 260.285 6.48894C260.343 6.49807 260.445 6.50314 260.519 6.50111C261.138 6.48387 261.751 6.46258 262.365 6.44432C262.53 6.43926 262.69 6.45548 262.824 6.48184C262.962 6.50922 263.117 6.52241 263.288 6.51734C263.901 6.49909 264.52 6.4788 265.133 6.46055C265.208 6.45852 265.299 6.46664 265.368 6.47475C265.965 6.53761 265.965 6.53863 266.317 6.52646C266.403 6.52342 266.493 6.52138 266.579 6.51834C267.016 6.50414 267.469 6.49908 267.896 6.47475C268.387 6.44737 268.744 6.48185 269.091 6.53964C269.528 6.52747 269.976 6.52037 270.403 6.5001C270.723 6.48489 270.894 6.52341 271.107 6.54876C271.182 6.55789 271.262 6.57614 271.326 6.57411C271.944 6.55687 272.563 6.54167 273.171 6.51632C273.502 6.50213 273.646 6.54774 273.87 6.57106C273.945 6.57918 274.025 6.59338 274.094 6.59135C274.446 6.58324 274.798 6.57107 275.15 6.55991C275.561 6.54673 275.561 6.54774 276.105 6.60959C276.361 6.639 276.617 6.61568 276.868 6.60858C277.134 6.60047 277.385 6.59439 277.598 6.63596C277.732 6.66232 277.892 6.67854 278.057 6.67449C278.409 6.66536 278.766 6.65624 279.113 6.64103C279.391 6.62886 279.63 6.63697 279.833 6.67449C279.977 6.70085 280.127 6.71404 280.303 6.70795C281.092 6.68362 281.887 6.65826 282.676 6.63494C282.745 6.63291 282.841 6.64204 282.905 6.65117C283.055 6.66942 283.199 6.68969 283.343 6.70997C283.69 6.70085 284.047 6.6968 284.388 6.68261C284.751 6.66841 285.082 6.66334 285.364 6.7191C285.423 6.73127 285.508 6.7485 285.578 6.74748C285.844 6.74343 286.106 6.73329 286.367 6.72518C286.628 6.71707 286.895 6.70896 287.156 6.70085C287.46 6.7262 287.653 6.7992 288.079 6.77588C288.335 6.76168 288.607 6.75864 288.869 6.75053C289.13 6.74242 289.397 6.73329 289.658 6.7262C289.743 6.72417 289.839 6.7191 289.914 6.72315C289.994 6.72721 290.063 6.74141 290.133 6.75154C290.346 6.78095 290.544 6.81036 290.848 6.79312C291.104 6.77892 291.376 6.77588 291.637 6.76676C291.994 6.7556 291.994 6.7556 292.586 6.81948C292.826 6.84584 293.098 6.81137 293.328 6.83368C293.482 6.84889 293.616 6.87423 293.765 6.89147C293.829 6.89856 293.93 6.9016 294.005 6.89957C294.357 6.89045 294.715 6.88133 295.061 6.86612C295.344 6.85395 295.579 6.86612 295.776 6.90262C295.92 6.92898 296.064 6.94014 296.245 6.93405C297.125 6.90566 298.006 6.88132 298.88 6.84989C299.179 6.83874 299.419 6.85598 299.584 6.89248C299.867 6.95534 300.267 6.88133 300.56 6.93202C300.742 6.96346 300.923 6.99996 301.254 6.98475C301.862 6.95839 302.481 6.94419 303.094 6.92594C303.313 6.95331 303.531 6.98069 303.755 7.00807C304.107 6.99692 304.459 6.98576 304.811 6.97562C305.073 6.9675 305.339 6.95838 305.601 6.95128C305.686 6.94926 305.777 6.9452 305.857 6.95027C305.937 6.95534 306.001 6.96852 306.076 6.97866C306.444 7.02834 306.444 7.02936 307.052 7.00908C307.313 6.99996 307.564 6.99387 307.782 7.03443C307.985 7.07195 308.225 7.07904 308.502 7.06789C309.025 7.04761 309.553 7.0324 310.087 7.0182C310.252 7.01314 310.407 7.03037 310.545 7.05673C310.753 7.0983 311.009 7.09425 311.271 7.0831C311.617 7.0689 311.959 7.05471 312.252 7.11149C312.311 7.12366 312.401 7.14088 312.465 7.13987C312.903 7.13176 313.346 7.12568 313.772 7.10642C314.199 7.08715 314.407 7.15001 314.7 7.18043C315.138 7.16725 315.58 7.15407 316.018 7.14088C316.103 7.13784 316.204 7.12872 316.279 7.13379C316.594 7.15509 316.775 7.23113 317.207 7.20781C317.458 7.19463 317.73 7.19058 317.991 7.18753C318.061 7.18652 318.151 7.20375 318.199 7.21693C318.226 7.22403 318.199 7.24329 318.167 7.25343C318.071 7.28182 317.954 7.30819 317.869 7.33759C317.858 7.34165 317.959 7.35989 318.018 7.368C318.162 7.38625 318.327 7.38322 318.519 7.37511C318.685 7.36801 318.855 7.3822 318.973 7.41262C319.021 7.42479 319.005 7.44506 318.903 7.51198C318.903 7.56166 319.015 7.53935 319.053 7.50691C319.111 7.46027 318.999 7.44506 318.786 7.47041C318.637 7.48866 318.562 7.51502 318.599 7.53631C318.621 7.54747 318.722 7.56166 318.903 7.51198C319.373 7.45115 319.725 7.44 320.077 7.42885C320.168 7.4258 320.274 7.41566 320.338 7.42174C320.568 7.44608 320.781 7.47548 321.005 7.50286C321.261 7.49678 321.501 7.48156 321.752 7.5211C322.104 7.57687 322.12 7.5718 322.461 7.56065C322.637 7.55456 322.813 7.5495 322.989 7.54443C323.165 7.53936 323.304 7.55457 323.458 7.57789C323.773 7.62554 323.8 7.62554 324.008 7.56065C324.13 7.52111 324.216 7.50793 324.37 7.52618C324.883 7.58803 324.888 7.59208 325.325 7.57383C325.688 7.55862 326.029 7.55457 326.296 7.61236C326.477 7.65292 326.536 7.64379 326.68 7.60121C327.064 7.48866 327.24 7.49069 327.96 7.5718C328.296 7.61033 328.643 7.56876 328.984 7.56369C329.272 7.55964 329.475 7.58397 329.496 7.64784C329.512 7.68739 329.56 7.71578 329.752 7.72896C329.827 7.73403 329.918 7.74113 329.992 7.7391C330.435 7.72693 330.872 7.71273 331.315 7.69854C331.539 7.69144 331.662 7.6438 331.619 7.58093C331.571 7.51402 331.656 7.48967 331.977 7.47041C332.169 7.45925 332.323 7.46129 332.478 7.47954C332.649 7.49982 332.601 7.51807 332.451 7.55457C332.094 7.6438 332.137 7.69854 332.595 7.76039C332.755 7.78168 332.883 7.80095 332.921 7.83238C332.942 7.84861 332.921 7.8699 332.969 7.88206C333.23 7.95 333.593 7.9936 333.998 8.02604C334.387 7.99867 334.654 8.04429 334.953 8.08079C335.188 8.10918 335.465 8.08485 335.716 8.07471C335.998 8.06356 336.233 8.07167 336.436 8.10918C336.58 8.13554 336.729 8.1477 336.905 8.14263C337.257 8.13148 337.614 8.12439 337.961 8.10817C338.26 8.09397 338.484 8.11425 338.67 8.14872C338.905 8.19232 339.167 8.16291 339.412 8.169C339.743 8.1761 339.908 8.26633 340.34 8.242C340.596 8.2278 340.863 8.22273 341.129 8.21868C341.199 8.21766 341.284 8.2349 341.343 8.24707C341.625 8.30284 341.956 8.29979 342.319 8.28357C342.57 8.27242 342.815 8.26228 343.06 8.30081C343.466 8.3657 343.914 8.42249 344.34 8.48231C344.399 8.52895 344.356 8.58369 344.66 8.61106C344.82 8.62526 344.97 8.64656 345.092 8.66988C345.242 8.69725 345.38 8.70435 345.572 8.69726C345.919 8.68306 346.282 8.68001 346.623 8.66176C346.938 8.64554 347.135 8.67901 347.327 8.71044C347.482 8.73579 347.626 8.74795 347.813 8.7297C348.005 8.71246 348.143 8.72361 348.298 8.75098C348.517 8.7885 348.533 8.78445 349.258 8.7956C349.333 8.79662 349.423 8.81182 349.466 8.825C349.487 8.8321 349.439 8.85239 349.402 8.86253C349.354 8.87469 349.279 8.88888 349.21 8.89192C348.421 8.91828 347.626 8.9416 346.837 8.96796C346.757 8.97101 346.671 8.97811 346.613 8.98825C346.549 8.9994 346.469 9.0146 346.469 9.0288C346.469 9.03894 346.575 9.05111 346.65 9.0582C346.885 9.08152 347.162 9.04604 347.391 9.0724C347.546 9.08964 347.674 9.11397 347.829 9.13019C347.893 9.13729 347.994 9.13628 348.074 9.13425C348.341 9.12715 348.602 9.11701 348.869 9.11093C348.943 9.10992 349.029 9.12006 349.098 9.12817C349.61 9.18901 349.61 9.189 350.053 9.17582C350.229 9.17075 350.416 9.15554 350.581 9.16163C350.741 9.16771 350.88 9.19509 351.024 9.21232C351.322 9.24882 351.605 9.28431 351.626 9.36339C351.637 9.39381 351.813 9.42017 351.989 9.4222C352.16 9.42423 352.341 9.41308 352.517 9.407C352.933 9.39483 352.933 9.39483 353.472 9.45668C353.621 9.47392 353.781 9.47594 353.973 9.4658C354.048 9.46175 354.139 9.46581 354.219 9.47088C354.48 9.48608 354.48 9.50534 354.309 9.54184C354.069 9.59558 354.09 9.60065 354.763 9.64628C355.019 9.66352 355.216 9.69597 355.429 9.72435C355.776 9.76998 355.771 9.76997 355.541 9.82979C355.488 9.84297 355.44 9.85717 355.387 9.87137C355.232 9.91091 355.109 9.95349 354.789 9.95755C354.437 9.9616 354.085 9.97783 353.733 9.98899C353.392 10.0001 353.301 10.0245 353.333 10.0934C353.37 10.1766 353.44 10.1857 354.053 10.1847C354.229 10.1847 354.384 10.1928 354.517 10.2201C354.453 10.2526 354.336 10.2779 354.165 10.284C353.728 10.2992 353.285 10.3124 352.848 10.3256C352.496 10.3368 352.144 10.3479 351.792 10.3591C351.573 10.3662 351.434 10.4189 351.493 10.4777C351.525 10.5111 351.552 10.5446 351.578 10.5781C351.637 10.645 351.749 10.6622 352.106 10.6592C352.197 10.6582 352.282 10.6501 352.368 10.6521C352.714 10.6592 352.88 10.7433 353.296 10.7261C353.642 10.7119 354.005 10.7089 354.347 10.6906C354.661 10.6744 354.837 10.7109 355.056 10.7383C355.131 10.7474 355.211 10.7667 355.275 10.7656C355.717 10.7545 356.16 10.7433 356.592 10.7241C356.795 10.716 356.917 10.722 357.077 10.7464C357.461 10.8052 357.472 10.8021 358.043 10.7839C358.459 10.7697 358.464 10.7717 358.998 10.8336C359.147 10.8508 359.307 10.8508 359.499 10.8427C359.75 10.8326 360.011 10.8163 360.272 10.8315C360.352 10.8356 360.454 10.8478 360.48 10.861C360.496 10.8701 360.422 10.8924 360.358 10.8995C359.888 10.9522 359.339 10.9431 358.827 10.9644C358.667 10.9705 358.507 10.9512 358.374 10.9238C358.235 10.8964 358.086 10.8853 357.904 10.8904C357.552 10.9015 357.195 10.9086 356.848 10.9248C356.549 10.939 356.341 10.9157 356.133 10.8843C356.064 10.8741 355.984 10.8549 355.915 10.8559C355.125 10.8762 354.331 10.8964 353.547 10.9248C353.232 10.937 353.05 10.9046 352.837 10.8772C352.762 10.8681 352.688 10.8488 352.618 10.8498C352.352 10.8539 352.09 10.865 351.824 10.8731C350.853 10.9035 349.887 10.934 348.917 10.9623C348.853 10.9644 348.773 10.9431 348.698 10.934C348.554 10.9157 348.405 10.8985 348.255 10.8812C347.989 10.8893 347.727 10.8995 347.461 10.9056C347.269 10.9096 347.098 10.9238 347.071 10.9623C347.055 10.9877 347.231 11.011 347.418 11.009C347.599 11.007 347.781 10.9948 347.93 11.008C348.671 11.0729 348.671 11.0739 349.135 11.0607C349.541 11.0485 349.498 11.0384 349.855 11.0941C350.01 11.1185 350.149 11.1327 350.325 11.1266C350.762 11.1124 351.205 11.0982 351.648 11.086C351.717 11.084 351.808 11.0942 351.877 11.1023C352.4 11.1631 352.4 11.1651 352.832 11.1499C353.397 11.1317 353.419 11.1266 353.797 11.1884C354.059 11.231 354.299 11.2016 354.549 11.1996C354.837 11.2391 355.152 11.2746 355.413 11.3192C355.723 11.372 356.048 11.3628 356.4 11.3476C356.661 11.3365 356.917 11.3324 357.131 11.374C357.334 11.4125 357.579 11.4166 357.856 11.4064C358.107 11.3973 358.363 11.378 358.624 11.4003C358.694 11.4064 358.8 11.4216 358.795 11.4308C358.79 11.445 358.72 11.4652 358.651 11.4713C358.16 11.5129 357.622 11.5119 357.104 11.5311C357.035 11.5342 356.944 11.523 356.875 11.5149C356.725 11.4967 356.581 11.4754 356.437 11.4561C356.176 11.4622 355.909 11.4642 355.653 11.4764C355.456 11.4855 355.307 11.4845 355.163 11.4602C355.029 11.4379 354.885 11.4105 354.725 11.4034C354.565 11.3963 354.379 11.4115 354.203 11.4176C354.027 11.4237 353.824 11.4206 353.685 11.4368C353.547 11.4531 353.461 11.4886 353.37 11.517C353.269 11.5484 353.13 11.5585 352.928 11.5616C352.741 11.5646 352.592 11.5606 352.453 11.5322C352.394 11.52 352.314 11.5109 352.234 11.5028C352.16 11.4957 352.074 11.4845 352.005 11.4865C351.21 11.5098 350.421 11.5352 349.626 11.5595C349.231 11.5717 349.237 11.5717 348.415 11.5119C348.341 11.5068 348.25 11.4997 348.175 11.5017C347.733 11.5139 347.295 11.5281 346.853 11.5423C346.405 11.5565 346.41 11.5545 345.647 11.4906C345.508 11.4784 345.306 11.4946 345.14 11.4926C344.794 11.4875 344.623 11.4024 344.218 11.4186C343.871 11.4328 343.508 11.4358 343.161 11.4541C342.847 11.4703 342.666 11.4348 342.452 11.4075C342.378 11.3983 342.297 11.378 342.233 11.3801C341.439 11.4024 340.649 11.4277 339.593 11.4308C339.332 11.4308 339.449 11.4521 339.62 11.4592C339.865 11.4703 339.945 11.449 339.812 11.4085C339.716 11.3801 339.577 11.3659 339.465 11.373C339.407 11.377 339.332 11.3963 339.593 11.4308C339.871 11.4693 339.855 11.4906 339.903 11.5028C340.02 11.5322 340.185 11.5443 340.356 11.5403C340.623 11.5332 340.884 11.523 341.151 11.517C341.225 11.5149 341.316 11.522 341.385 11.5301C341.972 11.593 341.977 11.5971 342.602 11.5727C342.799 11.5656 342.943 11.5656 343.098 11.5849C343.311 11.6113 343.466 11.6559 343.791 11.6417C344.223 11.6224 344.666 11.6113 345.108 11.6001C345.178 11.5981 345.252 11.6163 345.332 11.6244C345.551 11.6488 345.711 11.6944 346.036 11.6751C346.287 11.6599 346.559 11.6559 346.826 11.6528C346.895 11.6518 347.002 11.668 347.034 11.6812C347.098 11.7045 347.018 11.7319 346.837 11.7512C346.762 11.7593 346.661 11.7573 346.575 11.7603C346.223 11.7714 345.871 11.7836 345.519 11.7927C345.332 11.7978 345.156 11.813 345.135 11.8505C345.119 11.8759 345.311 11.8982 345.492 11.8962C345.759 11.8931 346.026 11.885 346.282 11.8718C346.735 11.8495 347.13 11.8556 347.498 11.9195C347.759 11.9641 347.743 11.9479 348.021 12.0797C348.09 12.1131 348.298 12.1162 348.479 12.1142C348.917 12.1091 349.119 12.1243 349.082 12.1557C349.034 12.1943 348.879 12.2064 348.682 12.2115C348.33 12.2196 347.978 12.2328 347.626 12.2439C347.541 12.247 347.445 12.2531 347.365 12.251C347.285 12.249 347.21 12.2368 347.141 12.2277C346.991 12.2084 346.863 12.179 346.703 12.1719C346.543 12.1648 346.357 12.1801 346.181 12.1861C346.004 12.1912 345.818 12.2064 345.658 12.1993C345.498 12.1922 345.364 12.1618 345.22 12.1436C345.151 12.1344 345.066 12.1202 344.996 12.1212C344.644 12.1294 344.292 12.1425 343.94 12.1527C343.508 12.1659 343.508 12.1659 342.986 12.103C342.836 12.0847 342.682 12.0858 342.484 12.0939C342.057 12.1101 342.052 12.1071 341.273 12.0482C341.199 12.0422 341.108 12.0351 341.033 12.0381C340.239 12.0614 339.449 12.0868 338.66 12.1111C337.982 12.1324 337.982 12.1324 337.609 12.2338C337.332 12.3088 337.326 12.3088 337.598 12.3433C337.817 12.3717 338.014 12.4133 338.254 12.4285C338.478 12.4427 338.756 12.397 339.001 12.4437C339.124 12.467 339.284 12.4923 339.439 12.4964C339.684 12.5015 339.945 12.4721 340.18 12.5167C340.297 12.539 340.473 12.5623 340.623 12.5633C340.884 12.5653 341.151 12.5491 341.412 12.542C341.492 12.54 341.583 12.54 341.657 12.5451C341.737 12.5511 341.807 12.5633 341.876 12.5735C342.089 12.6079 342.319 12.6241 342.596 12.6069C343.05 12.5785 343.455 12.5927 343.807 12.6576C343.855 12.6667 343.972 12.6678 344.047 12.6637C344.239 12.6536 344.404 12.6525 344.548 12.6718C344.607 12.6799 344.692 12.6941 344.682 12.7032C344.666 12.7184 344.602 12.7387 344.532 12.7438C344.031 12.7783 343.492 12.7823 342.975 12.8006C342.906 12.8026 342.82 12.7894 342.751 12.7803C342.602 12.762 342.474 12.7316 342.314 12.7245C342.153 12.7174 341.967 12.7306 341.791 12.7357C341.615 12.7408 341.428 12.756 341.268 12.7499C341.108 12.7428 340.959 12.7174 340.831 12.6951C340.681 12.6698 340.537 12.6667 340.34 12.6769C340.084 12.6901 339.817 12.6921 339.556 12.6992C339.412 12.6799 339.268 12.6586 339.119 12.6404C339.049 12.6312 338.964 12.6201 338.889 12.6211C338.537 12.6292 338.185 12.6414 337.833 12.6525C337.481 12.6637 337.481 12.6637 336.884 12.6008C336.814 12.5937 336.724 12.5856 336.649 12.5877C336.206 12.5998 335.769 12.615 335.326 12.6272C335.155 12.6323 335.001 12.6181 334.862 12.5907C334.729 12.5633 334.569 12.5481 334.403 12.5532C333.699 12.5745 332.995 12.5947 332.291 12.6201C332.009 12.6302 331.768 12.6211 331.576 12.5846C331.352 12.543 331.102 12.5532 330.84 12.5613C330.248 12.5816 330.243 12.5805 329.864 12.5288C329.79 12.5187 329.715 12.4994 329.646 12.5004C329.032 12.5157 328.414 12.5299 327.806 12.5542C327.486 12.5674 327.315 12.5319 327.101 12.5055C327.027 12.4964 326.947 12.4771 326.883 12.4792C326.44 12.4903 325.997 12.5005 325.565 12.5207C325.133 12.541 324.968 12.4467 324.643 12.4477C324.2 12.4487 323.762 12.4721 323.325 12.4863C322.973 12.4974 322.621 12.5086 322.269 12.5197C321.917 12.5309 321.565 12.54 321.213 12.5532C321.026 12.5603 320.888 12.5511 320.733 12.5258C320.536 12.4923 320.301 12.466 320.088 12.4356C319.762 12.392 319.762 12.392 319.367 12.4041C319.282 12.4072 319.191 12.4092 319.106 12.4122C318.461 12.4345 318.461 12.4325 317.639 12.3686C317.602 12.3656 317.506 12.3768 317.469 12.3849C317.357 12.4112 317.255 12.4396 317.154 12.467C317.01 12.4508 316.834 12.4416 316.738 12.4183C316.466 12.3524 316.039 12.4427 315.762 12.3778C315.66 12.3534 315.484 12.3321 315.324 12.3261C315.159 12.32 314.972 12.3342 314.802 12.3403C314.359 12.3555 314.359 12.3545 313.98 12.4447C313.788 12.4893 313.511 12.4812 313.26 12.4913C312.999 12.5025 312.748 12.5086 312.529 12.467C312.332 12.4295 312.092 12.4204 311.809 12.4325C311.463 12.4477 311.105 12.4569 310.753 12.466C310.679 12.468 310.588 12.4629 310.513 12.4569C309.697 12.397 309.697 12.396 309.302 12.4092C309.126 12.4153 308.945 12.4173 308.774 12.4264C308.486 12.4427 308.268 12.4214 308.06 12.3889C307.99 12.3788 307.91 12.3595 307.841 12.3605C307.489 12.3656 307.142 12.3747 306.796 12.3839C306.529 12.391 306.262 12.395 306.006 12.4092C305.579 12.4325 305.371 12.3666 305.078 12.3362C304.641 12.3494 304.198 12.3585 303.761 12.3768C303.558 12.3849 303.425 12.3818 303.27 12.3575C303.073 12.3271 302.891 12.2926 302.571 12.3078C302.145 12.3281 301.697 12.3352 301.259 12.3474C300.966 12.3159 300.752 12.252 300.331 12.2754C300.075 12.2896 299.803 12.2926 299.542 12.3007C299.19 12.3119 298.838 12.322 298.486 12.3342C298.107 12.3463 298.112 12.3433 297.531 12.2835C297.195 12.248 296.848 12.2875 296.507 12.2936C296.24 12.2987 296.107 12.3453 296.171 12.4051C296.235 12.465 296.091 12.5116 295.845 12.5197C295.232 12.539 294.613 12.5593 294 12.5765C293.925 12.5785 293.834 12.5714 293.765 12.5643C293.109 12.5004 293.109 12.5015 292.816 12.5106C292.378 12.5258 291.93 12.5339 291.498 12.5532C291.2 12.5664 290.981 12.5451 290.789 12.5106C290.639 12.4842 290.501 12.4781 290.309 12.4842C288.197 12.5522 286.084 12.615 283.978 12.685C283.663 12.6951 283.482 12.6657 283.268 12.6383C283.194 12.6292 283.124 12.61 283.049 12.61C282.873 12.61 282.697 12.6191 282.521 12.6252C281.732 12.6495 280.943 12.6789 280.148 12.6972C279.812 12.7053 279.721 12.7519 279.577 12.7904C279.465 12.8198 279.337 12.832 279.14 12.8361C278.948 12.8401 278.809 12.835 278.66 12.8087C278.468 12.7742 278.249 12.7529 277.95 12.7671C277.604 12.7833 277.252 12.7904 276.894 12.8016C276.713 12.8067 276.574 12.8249 276.516 12.8614C276.505 12.8675 276.617 12.8827 276.681 12.8918C276.894 12.9222 277.097 12.9577 277.337 12.979C277.582 13.0003 277.849 12.976 278.105 12.9699C278.196 12.9679 278.281 12.9618 278.366 12.9628C278.446 12.9638 278.542 12.9689 278.601 12.978C278.878 13.0236 279.172 13.0551 279.556 13.0277C279.886 13.0409 280.057 13.125 280.479 13.1027C280.735 13.0895 281.001 13.0835 281.268 13.0784C281.337 13.0774 281.412 13.0956 281.487 13.1047C281.7 13.1301 281.871 13.1707 282.191 13.1534C282.532 13.1352 282.895 13.1321 283.242 13.1179C283.434 13.1098 283.572 13.1169 283.721 13.1433C283.914 13.1767 284.132 13.2021 284.431 13.1859C284.687 13.1717 284.959 13.1686 285.22 13.1595C285.562 13.1483 285.562 13.1494 286.17 13.2122C286.239 13.2193 286.33 13.2274 286.404 13.2254C286.847 13.2132 287.284 13.198 287.727 13.1859C287.898 13.1808 288.063 13.194 288.181 13.2234C288.229 13.2355 288.213 13.2558 288.229 13.2731C287.348 13.3004 286.468 13.3238 285.594 13.3572C285.263 13.3704 285.114 13.3288 284.895 13.3055C284.82 13.2974 284.74 13.2802 284.671 13.2822C284.052 13.2994 283.439 13.3177 282.825 13.34C282.633 13.3471 282.489 13.343 282.345 13.3136C281.977 13.2355 281.529 13.2781 281.113 13.2893C280.793 13.2974 280.692 13.3288 280.729 13.3957C280.777 13.4748 280.969 13.4992 281.46 13.485C281.636 13.4799 281.812 13.4728 281.988 13.4687C282.159 13.4647 282.313 13.4779 282.452 13.5052C282.585 13.5326 282.745 13.5468 282.911 13.5428C283.263 13.5336 283.62 13.5245 283.961 13.5093C284.244 13.4971 284.479 13.5073 284.676 13.5448C284.895 13.5864 285.151 13.5772 285.407 13.5681C286.004 13.5478 286.01 13.5488 286.383 13.5995C286.458 13.6097 286.533 13.6289 286.602 13.6279C287.215 13.6127 287.834 13.5995 288.437 13.5752C288.751 13.563 288.933 13.5955 289.141 13.6218C289.215 13.631 289.29 13.6512 289.359 13.6492C289.802 13.6381 290.245 13.6269 290.677 13.6076C290.879 13.5985 291.002 13.6046 291.167 13.6289C291.562 13.6888 291.573 13.6867 292.133 13.6675C292.304 13.6614 292.49 13.6502 292.65 13.6583C292.81 13.6665 292.938 13.6959 293.088 13.7141C293.157 13.7222 293.242 13.7334 293.317 13.7313C293.669 13.7232 294.021 13.7111 294.373 13.6999C294.704 13.6888 294.704 13.6898 295.323 13.7526C295.573 13.779 295.835 13.7567 296.085 13.7486C296.357 13.7395 296.603 13.7395 296.811 13.779C297.019 13.8185 297.269 13.8165 297.536 13.8084C297.787 13.8003 298.043 13.778 298.299 13.8054C298.886 13.8682 298.886 13.8692 299.248 13.8571C299.776 13.8398 300.299 13.8236 300.832 13.8084C300.902 13.8064 300.992 13.8185 301.062 13.8267C301.211 13.8449 301.339 13.8753 301.499 13.8824C301.659 13.8905 301.846 13.8784 302.017 13.8723C302.566 13.853 302.603 13.8459 302.971 13.9128C303.281 13.9676 303.665 13.8885 303.953 13.9514C304.118 13.9869 304.342 14.0152 304.651 13.998C304.907 13.9838 305.174 13.9798 305.441 13.9716C305.862 13.9585 305.862 13.9595 306.396 14.0203C306.465 14.0284 306.556 14.0386 306.625 14.0365C306.977 14.0284 307.334 14.0213 307.676 14.0031C308.076 13.9818 308.332 14.0203 308.63 14.0578C308.865 14.0872 309.143 14.0629 309.393 14.0528C309.665 14.0426 309.911 14.0457 310.113 14.0852C310.327 14.1258 310.577 14.1207 310.844 14.1126C311.095 14.1055 311.351 14.0822 311.607 14.1105C312.156 14.1734 312.156 14.1734 312.556 14.1612C312.908 14.1501 313.26 14.1379 313.612 14.1298C313.682 14.1278 313.767 14.141 313.836 14.1501C313.986 14.1683 314.114 14.1988 314.274 14.2059C314.434 14.213 314.62 14.1998 314.796 14.1947C314.972 14.1896 315.159 14.1744 315.319 14.1805C315.479 14.1866 315.628 14.2119 315.756 14.2343C315.906 14.2606 316.044 14.2637 316.247 14.2535C316.503 14.2403 316.77 14.2373 317.031 14.2302C317.175 14.2495 317.325 14.2687 317.463 14.29C317.607 14.3123 317.762 14.3103 317.959 14.3032C318.615 14.2789 318.621 14.2819 319.17 14.3448C319.421 14.3732 319.682 14.3498 319.933 14.3427C320.2 14.3346 320.45 14.3306 320.658 14.3711C320.861 14.4097 321.112 14.4147 321.378 14.4026C321.549 14.3944 321.73 14.3894 321.906 14.3863C321.986 14.3853 322.082 14.3894 322.141 14.3975C322.424 14.4401 322.701 14.4786 323.09 14.4512C323.432 14.4593 323.602 14.5425 324.013 14.5263C324.36 14.5121 324.723 14.509 325.064 14.4908C325.379 14.4745 325.603 14.5029 325.763 14.5384C326.051 14.6013 326.456 14.5161 326.744 14.578C326.909 14.6135 327.123 14.6418 327.443 14.6266C327.795 14.6104 327.907 14.6317 328.008 14.6956C328.067 14.7321 328.056 14.7615 327.95 14.7899C327.843 14.8193 327.726 14.8142 327.555 14.7808C327.358 14.7432 327.123 14.7361 326.84 14.7442C326.563 14.7524 326.392 14.6996 326.163 14.6794C325.933 14.6581 325.661 14.6936 325.421 14.6662C324.856 14.6023 324.856 14.6023 324.472 14.6145C324.211 14.6226 323.939 14.6266 323.683 14.6408C323.378 14.6581 323.181 14.6266 322.973 14.5982C322.898 14.5881 322.824 14.5688 322.76 14.5699C322.146 14.5851 321.528 14.5993 320.92 14.6246C320.599 14.6378 320.429 14.6013 320.216 14.5759C320.141 14.5668 320.061 14.5486 319.997 14.5506C319.469 14.5648 318.946 14.583 318.418 14.6003C318.317 14.6277 318.205 14.654 318.109 14.6834C318.007 14.7138 317.869 14.727 317.666 14.726C317.33 14.726 316.999 14.7686 316.663 14.7148C316.316 14.6601 316.29 14.6631 315.954 14.6763C315.527 14.6936 315.074 14.6895 314.674 14.729C314.604 14.7361 314.53 14.7554 314.53 14.7696C314.524 14.7787 314.636 14.7919 314.706 14.8C314.94 14.8243 315.212 14.7889 315.447 14.8142C315.602 14.8304 315.73 14.8548 315.884 14.872C315.948 14.8791 316.044 14.8781 316.13 14.8771C316.22 14.8761 316.306 14.869 316.391 14.87C316.471 14.871 316.557 14.8771 316.621 14.8862C316.914 14.9247 317.223 14.9602 317.485 15.0058C317.741 15.0505 317.981 15.02 318.237 15.018C319.261 15.089 319.261 15.09 319.949 15.0677C320.12 15.0626 320.296 15.0565 320.472 15.0576C320.546 15.0576 320.616 15.0758 320.69 15.0859C320.904 15.1164 321.106 15.1437 321.405 15.1275C321.661 15.1133 321.933 15.1103 322.194 15.1011C322.546 15.09 322.546 15.09 323.144 15.1539C323.293 15.1701 323.453 15.1681 323.645 15.16C323.81 15.1529 323.981 15.1681 324.098 15.1975C324.146 15.2096 324.13 15.2299 324.146 15.2472C323.618 15.2634 323.085 15.2745 322.573 15.2989C322.242 15.3141 322.093 15.2705 321.874 15.2472C321.8 15.239 321.72 15.2218 321.65 15.2238C321.128 15.239 320.605 15.2563 320.082 15.2766C320.018 15.2786 319.938 15.3019 319.933 15.3161C319.922 15.3425 320.055 15.3678 320.247 15.3668C320.503 15.3658 320.754 15.3485 320.984 15.3901C321.176 15.4266 321.416 15.4428 321.698 15.4266C321.869 15.4175 322.05 15.4175 322.221 15.4094C322.674 15.385 323.085 15.3901 323.426 15.4591C323.688 15.4773 323.944 15.4601 324.195 15.451C324.381 15.4439 324.563 15.4368 324.696 15.456C324.979 15.4966 325.256 15.5371 325.645 15.5098C326.067 15.5381 326.387 15.598 326.739 15.6466C326.904 15.67 327.032 15.6831 327.224 15.6679C327.304 15.6618 327.4 15.6618 327.485 15.6588C327.661 15.6537 327.848 15.6385 328.008 15.6446C328.168 15.6517 328.302 15.6811 328.446 15.6994C328.515 15.7085 328.595 15.7237 328.664 15.7227C328.931 15.7176 329.192 15.7075 329.454 15.6994C329.715 15.6923 329.976 15.6852 330.238 15.6781C330.456 15.7044 330.68 15.7308 330.899 15.7572C331.251 15.746 331.603 15.7348 331.95 15.7247C332.339 15.7125 332.339 15.7136 332.899 15.7764C333.15 15.8048 333.417 15.7866 333.657 15.7734C334.057 15.7521 334.323 15.7906 334.606 15.8312C334.665 15.8393 334.771 15.8443 334.841 15.8403C335.118 15.8261 335.358 15.8372 335.561 15.8748C335.705 15.9011 335.849 15.9133 336.025 15.9082C336.638 15.889 337.252 15.8687 337.865 15.8514C337.94 15.8494 338.025 15.8585 338.094 15.8667C338.638 15.9285 338.644 15.9315 339.044 15.9153C339.401 15.9011 339.732 15.895 340.015 15.9508C340.073 15.963 340.164 15.9802 340.228 15.9792C340.665 15.9691 341.108 15.9579 341.54 15.9407C341.737 15.9326 341.876 15.9356 342.031 15.9589C342.228 15.9883 342.404 16.0238 342.73 16.0106C343.631 15.9731 343.636 15.9792 344.703 16.0492C344.778 16.0542 344.879 16.0461 344.964 16.0421C345.146 16.0319 345.279 16.0461 345.439 16.0694C345.796 16.1222 345.807 16.1191 346.148 16.108C346.41 16.0988 346.682 16.0968 346.938 16.0816C347.333 16.0593 347.594 16.0988 347.887 16.1364C348.122 16.1658 348.394 16.1414 348.645 16.1323C348.917 16.1222 349.162 16.1252 349.365 16.1637C349.503 16.1901 349.653 16.2043 349.829 16.1992C350.442 16.181 351.056 16.1607 351.669 16.1424C351.744 16.1404 351.834 16.1485 351.904 16.1556C352.512 16.2185 352.512 16.2215 353.114 16.1982C353.306 16.1911 353.466 16.1891 353.61 16.2104C353.749 16.2307 353.899 16.2499 354.043 16.2692C354.304 16.2621 354.571 16.2601 354.827 16.2479C355.024 16.2388 355.163 16.2428 355.317 16.2641C355.52 16.2915 355.691 16.3391 356.011 16.3158C356.176 16.3047 356.368 16.3077 356.533 16.2976C356.731 16.2844 356.864 16.2925 357.019 16.3189C357.211 16.3503 357.408 16.3827 357.717 16.3665C358.059 16.3483 358.422 16.3452 358.768 16.331C358.96 16.3229 359.094 16.331 359.248 16.3574C359.44 16.3908 359.659 16.4121 359.958 16.399C360.566 16.3736 360.571 16.3787 361.163 16.4426C361.312 16.4588 361.473 16.4568 361.665 16.4486C361.83 16.4415 362.001 16.4568 362.118 16.4862C362.23 16.5186 362.219 16.5389 362.23 16.5561ZM314.7 7.41161C314.524 7.41667 314.348 7.42276 314.092 7.33455C314.076 7.31934 314.087 7.30109 314.05 7.28791C313.964 7.26053 313.831 7.24127 313.671 7.23823C313.383 7.23417 313.036 7.26864 313.041 7.295C313.047 7.31731 313.137 7.33657 313.313 7.35482C313.388 7.36192 313.447 7.37409 313.516 7.3822C313.719 7.40552 313.879 7.45115 314.172 7.42783C314.119 7.36497 314.146 7.3964 314.172 7.42783C314.146 7.46636 314.226 7.49374 314.418 7.50489C314.471 7.50793 314.551 7.5059 314.594 7.49982C314.759 7.47751 314.786 7.4471 314.663 7.367C314.642 7.38018 314.658 7.40349 314.706 7.40958C314.754 7.41566 314.871 7.4106 314.93 7.4035C315.079 7.38423 315.154 7.35888 315.116 7.33759C315.095 7.32644 314.994 7.31224 314.93 7.31224C314.818 7.31224 314.716 7.33455 314.7 7.41161ZM357.829 19.17C357.44 19.1893 356.992 19.1822 356.603 19.2217C356.533 19.2288 356.464 19.2471 356.459 19.2612C356.453 19.2704 356.56 19.2836 356.624 19.2907C356.768 19.3069 356.928 19.3018 357.115 19.2967C357.398 19.2896 357.563 19.3363 357.782 19.3596C357.851 19.3667 357.942 19.3718 358.016 19.3697C358.448 19.3576 358.875 19.3444 359.307 19.3302C359.382 19.3272 359.462 19.3201 359.526 19.3109C359.739 19.2815 359.718 19.2623 359.51 19.24C359.28 19.2156 359.099 19.1751 358.864 19.1558C358.528 19.1284 358.187 19.1649 357.829 19.17ZM327.539 19.9102C327.277 19.9183 327.021 19.9264 326.76 19.9345C326.675 19.9375 326.584 19.9385 326.504 19.9426C326.339 19.9497 326.216 19.971 326.136 20.0044C326.259 20.0308 326.408 20.046 326.573 20.043C326.835 20.0369 327.091 20.0237 327.352 20.0207C327.635 20.0166 327.8 20.0622 328.019 20.0856C328.088 20.0927 328.173 20.0937 328.254 20.0947C328.648 20.0987 328.888 20.046 328.814 19.972C328.76 19.9142 328.558 19.8797 328.312 19.8868C328.056 19.8939 327.795 19.902 327.539 19.9102ZM359.654 17.6714C359.718 17.6542 359.787 17.642 359.819 17.6268C359.915 17.5751 359.878 17.5366 359.702 17.496C359.488 17.4463 359.227 17.4798 358.987 17.4849C358.928 17.4859 358.864 17.5072 358.832 17.5203C358.811 17.5295 358.811 17.5487 358.843 17.5538C359.104 17.5944 359.382 17.6319 359.654 17.6714ZM313.383 14.6763C313.127 14.6844 312.866 14.6905 312.61 14.7017C312.546 14.7047 312.487 14.724 312.449 14.7372C312.38 14.7615 312.455 14.7949 312.673 14.798C312.924 14.802 313.185 14.7848 313.447 14.7767C313.778 14.7666 313.975 14.729 313.852 14.6966C313.735 14.6652 313.575 14.6591 313.383 14.6763ZM32.6162 12.5096C32.7869 12.5045 32.9629 12.5005 33.1336 12.4934C33.2936 12.4863 33.4164 12.464 33.4964 12.4305C33.363 12.4041 33.2136 12.3899 33.0483 12.393C32.7869 12.3991 32.5309 12.4072 32.2749 12.4173C32.1149 12.4234 31.9603 12.4457 31.9229 12.4802C31.8856 12.5065 32.2429 12.5217 32.6162 12.5096ZM290.826 12.3534C290.896 12.3626 290.965 12.3808 291.034 12.3808C291.205 12.3808 291.381 12.3747 291.541 12.3646C291.61 12.3605 291.664 12.3423 291.696 12.3281C291.717 12.319 291.712 12.3027 291.68 12.2946C291.525 12.246 290.906 12.2632 290.805 12.319C290.794 12.3291 290.821 12.3423 290.826 12.3534ZM273.998 6.80123C274.014 6.81745 274.019 6.83367 274.041 6.84989C274.083 6.88031 274.201 6.90262 274.371 6.91783C274.505 6.89248 274.574 6.8641 274.569 6.83368C274.563 6.81746 274.547 6.80122 274.526 6.785C274.483 6.75458 274.366 6.73228 274.195 6.71707C274.062 6.74141 273.998 6.76979 273.998 6.80123ZM371.98 20.0866C371.932 20.0998 371.884 20.1129 371.831 20.1251C371.975 20.1545 372.108 20.1636 372.21 20.1474C372.274 20.1373 372.311 20.1221 372.359 20.1089C372.215 20.0795 372.087 20.0714 371.98 20.0866ZM368.662 20.2245C368.732 20.2336 368.796 20.2458 368.871 20.2518C368.993 20.262 369.105 20.2447 369.191 20.2082C369.121 20.1991 369.057 20.1869 368.983 20.1809C368.86 20.1707 368.748 20.188 368.662 20.2245ZM370.764 20.0389C370.727 20.0633 370.801 20.0835 370.999 20.1008C371.047 20.0876 371.111 20.0754 371.143 20.0612C371.196 20.0379 371.105 20.0166 370.913 20.0004C370.86 20.0126 370.812 20.0257 370.764 20.0389ZM359.504 18.9459C359.467 18.9703 359.542 18.9905 359.739 19.0078C359.787 18.9946 359.851 18.9824 359.883 18.9682C359.936 18.9449 359.846 18.9236 359.654 18.9074C359.6 18.9196 359.552 18.9327 359.504 18.9459ZM344.164 11.7714C344.116 11.7846 344.068 11.7978 344.015 11.81C344.159 11.8394 344.292 11.8485 344.394 11.8323C344.458 11.8221 344.495 11.8069 344.543 11.7937C344.399 11.7643 344.271 11.7562 344.164 11.7714ZM329.47 7.9652C329.598 7.9723 329.704 7.95811 329.795 7.92059C329.726 7.91147 329.662 7.8993 329.587 7.89322C329.464 7.88308 329.352 7.90032 329.267 7.93682C329.336 7.94696 329.406 7.95607 329.47 7.9652ZM321.666 7.72693C321.618 7.74011 321.57 7.75329 321.517 7.76546C321.661 7.79486 321.794 7.80399 321.896 7.78776C321.96 7.77763 321.997 7.76242 322.045 7.74923C321.901 7.71983 321.773 7.71274 321.666 7.72693ZM268.75 6.80021C268.702 6.81339 268.654 6.82657 268.6 6.83874C268.744 6.86814 268.878 6.87727 268.979 6.86104C269.043 6.8509 269.08 6.83569 269.128 6.82251C268.984 6.79311 268.856 6.78602 268.75 6.80021ZM5.26441 15.0494C5.19507 15.0403 5.12579 15.0312 5.06178 15.0211C4.9071 15.0484 4.85911 15.0738 4.94446 15.093C4.99779 15.1052 5.07774 15.1123 5.14708 15.1214C5.30709 15.0941 5.34441 15.0697 5.26441 15.0494Z" fill="#4F9CF9"/>
<path d="M30.5023 5.04117C29.889 5.06043 29.2809 5.08476 28.6675 5.09693C28.3422 5.10301 28.2249 5.14661 28.0916 5.18717C27.9849 5.21961 27.8622 5.22975 27.6648 5.23583C26.0007 5.28551 24.3418 5.33824 22.683 5.38995C22.475 5.37677 22.3737 5.35548 22.4217 5.33013C22.4483 5.31492 22.5124 5.29363 22.5764 5.2916C23.7125 5.25409 24.8432 5.21556 25.9846 5.18615C26.31 5.17804 26.4007 5.13343 26.5661 5.09693C26.6194 5.08476 26.6621 5.06651 26.7314 5.05941C26.8008 5.0513 26.9021 5.05232 26.9928 5.05029C28.8276 4.9925 30.6625 4.93572 32.4973 4.87793C32.7053 4.89111 32.8067 4.9124 32.7587 4.93775C32.732 4.95296 32.668 4.97425 32.604 4.97628C31.8999 4.99757 31.2011 5.01886 30.5023 5.04117Z" fill="#4F9CF9"/>
<path d="M365.446 10.4403C365.169 10.4525 364.817 10.4697 364.529 10.4109C364.39 10.3825 364.241 10.3734 364.059 10.3795C363.798 10.3896 363.531 10.3977 363.265 10.4038C363.195 10.4048 363.105 10.3937 363.035 10.3846C362.886 10.3663 362.758 10.3359 362.598 10.3278C362.438 10.3197 362.246 10.342 362.081 10.3369C361.862 10.3298 361.771 10.3024 361.83 10.2771C361.862 10.2629 361.926 10.2426 361.995 10.2396C362.982 10.2021 362.987 10.2021 363.265 10.2386C363.478 10.2669 363.675 10.2984 363.979 10.2811C364.236 10.2669 364.508 10.2639 364.769 10.2548C365.132 10.2426 365.132 10.2436 365.718 10.3075C365.868 10.3237 366.028 10.3227 366.22 10.3136C366.385 10.3065 366.545 10.3227 366.678 10.3501C366.593 10.3846 366.47 10.4069 366.305 10.4129C366.038 10.4231 365.777 10.4302 365.446 10.4403Z" fill="#4F9CF9"/>
<path d="M356.747 10.1279C357.419 10.1066 358.096 10.0884 358.768 10.064C359.046 10.0539 359.264 10.065 359.456 10.0995C359.664 10.137 359.899 10.134 360.155 10.1269C360.315 10.1228 360.47 10.139 360.577 10.1674C360.619 10.1786 360.609 10.1989 360.625 10.2151C360.038 10.2333 359.446 10.2526 358.854 10.2688C358.784 10.2708 358.699 10.2607 358.635 10.2526C358.491 10.2354 358.368 10.2049 358.214 10.1989C357.883 10.1847 357.552 10.212 357.216 10.2171C357.056 10.2191 356.902 10.2039 356.795 10.1766C356.752 10.1634 356.763 10.1441 356.747 10.1279Z" fill="#4F9CF9"/>
<path d="M112.471 1.41056C113.17 1.38825 113.868 1.36697 114.567 1.34467C114.775 1.35886 114.871 1.37914 114.829 1.40448C114.802 1.41969 114.738 1.44098 114.674 1.44301C113.276 1.48864 111.879 1.53223 110.487 1.57583C110.279 1.56163 110.183 1.54136 110.226 1.51601C110.252 1.5008 110.316 1.47951 110.38 1.47748C111.074 1.45416 111.772 1.43287 112.471 1.41056Z" fill="#4F9CF9"/>
<path d="M4.9933 7.04465C4.67861 7.04667 4.34798 7.08419 3.99595 7.0558C3.92661 7.05073 3.83057 7.0345 3.83591 7.02537C3.84657 7.01017 3.91059 6.9909 3.97993 6.98482C4.28396 6.95947 4.66269 6.95643 4.81737 6.88545C4.89205 6.84895 5.03073 6.83679 5.21741 6.8297C5.41476 6.82158 5.5534 6.82462 5.70808 6.84591C5.91076 6.87328 6.08147 6.92398 6.4015 6.89762C6.4175 6.91384 6.45475 6.93209 6.43874 6.9473C6.42274 6.96251 6.35352 6.97671 6.28951 6.98786C6.23084 6.998 6.15075 7.00712 6.07608 7.01016C5.72405 7.02233 5.372 7.03248 4.9933 7.04465Z" fill="#4F9CF9"/>
<path d="M283.266 6.84089C283.528 6.83278 283.8 6.82872 284.056 6.81453C284.258 6.80338 284.386 6.81047 284.546 6.8348C284.818 6.87739 284.834 6.87334 285.501 6.87942C285.576 6.88044 285.666 6.89564 285.709 6.90882C285.736 6.91591 285.698 6.93519 285.666 6.94533C285.618 6.95851 285.549 6.97574 285.485 6.97574C285.064 6.97878 284.637 7.03861 284.226 6.96966C284.018 6.93519 283.789 6.91896 283.506 6.93416C283.335 6.94329 283.154 6.94735 282.978 6.95141C282.807 6.95546 282.631 6.94431 282.525 6.91389C282.37 6.86928 282.461 6.85205 282.738 6.85509C282.914 6.85712 283.09 6.84596 283.266 6.84089Z" fill="#4F9CF9"/>
<path d="M379.478 13.8298C379.814 13.8196 380.15 13.8075 380.492 13.7994C380.561 13.7973 380.646 13.8085 380.71 13.8156C380.966 13.846 380.929 13.8977 380.94 13.9433C380.945 13.991 380.353 14.0295 380.102 13.9971C379.825 13.9606 379.574 13.919 379.19 13.9413C379.041 13.9494 378.865 13.9312 378.769 13.9018C378.625 13.8592 378.705 13.842 378.977 13.845C379.137 13.847 379.308 13.8359 379.478 13.8298Z" fill="#4F9CF9"/>
<path d="M209.359 0.0294177C209.706 0.0182646 210.053 0.00103642 210.399 2.25019e-05C210.602 -0.000991415 210.703 0.0324614 210.655 0.0567954C210.629 0.0720041 210.565 0.0932969 210.501 0.0953247C209.807 0.119659 209.114 0.139941 208.42 0.162247C208.218 0.148052 208.116 0.126763 208.164 0.102429C208.191 0.0872203 208.255 0.0669415 208.319 0.0638997C208.666 0.0497049 209.012 0.0405708 209.359 0.0294177Z" fill="#4F9CF9"/>
<path d="M372.735 10.5293C373.071 10.5192 373.412 10.504 373.748 10.4989C373.924 10.4969 374.063 10.5202 374.084 10.5466C374.095 10.5587 374.009 10.58 373.94 10.5851C373.46 10.6196 372.943 10.6236 372.441 10.6409C372.281 10.6459 372.11 10.6297 372.014 10.6013C371.87 10.5577 371.951 10.5415 372.223 10.5445C372.393 10.5456 372.564 10.5344 372.735 10.5293Z" fill="#4F9CF9"/>
<path d="M291.582 6.97779C291.752 6.97272 291.928 6.95954 292.094 6.96359C292.27 6.96866 292.382 6.99807 292.435 7.02747C292.494 7.06093 292.489 7.09237 292.435 7.12076C292.35 7.16942 292.264 7.1674 292.067 7.13495C291.763 7.08426 291.742 7.09033 291.139 7.09236C291.07 7.09236 290.984 7.07715 290.931 7.06397C290.851 7.04369 290.894 7.01227 291.08 6.99402C291.219 6.98083 291.411 6.98286 291.582 6.97779Z" fill="#4F9CF9"/>
<path d="M360.647 10.1969C360.898 10.1887 361.148 10.1756 361.399 10.1756C361.575 10.1746 361.714 10.1979 361.73 10.2232C361.735 10.2354 361.655 10.2557 361.591 10.2617C361.287 10.2891 360.946 10.2912 360.615 10.3003C360.46 10.3043 360.289 10.2881 360.193 10.2597C360.049 10.2171 360.135 10.1979 360.396 10.2039C360.476 10.206 360.562 10.1999 360.647 10.1969Z" fill="#4F9CF9"/>
<path d="M320.298 8.95282C319.925 8.96499 319.573 8.94979 319.6 8.92343C319.637 8.88896 319.792 8.86664 319.952 8.86055C320.208 8.85042 320.464 8.8423 320.725 8.83622C320.89 8.83217 321.04 8.84737 321.173 8.87374C321.093 8.90618 320.97 8.9295 320.81 8.9366C320.645 8.9437 320.469 8.94775 320.298 8.95282Z" fill="#4F9CF9"/>
<path d="M318.433 8.82326C318.683 8.81515 318.934 8.80197 319.185 8.80197C319.361 8.80096 319.499 8.82428 319.515 8.84962C319.521 8.86179 319.441 8.88207 319.377 8.88815C319.073 8.91553 318.731 8.91756 318.401 8.92668C318.246 8.93074 318.075 8.91451 317.979 8.88612C317.835 8.84354 317.921 8.82428 318.182 8.83037C318.262 8.83239 318.347 8.8263 318.433 8.82326Z" fill="#4F9CF9"/>
<path d="M288.038 6.96986C288.289 6.96175 288.54 6.94856 288.79 6.94754C288.966 6.94653 289.105 6.96986 289.121 6.99521C289.126 7.00737 289.046 7.02664 288.982 7.03373C288.678 7.06111 288.337 7.06314 288.006 7.07226C287.852 7.07632 287.681 7.06009 287.585 7.0317C287.441 6.98912 287.526 6.96985 287.788 6.97593C287.868 6.97796 287.953 6.97189 288.038 6.96986Z" fill="#4F9CF9"/>
<path d="M286.499 6.9096C286.766 6.90149 286.851 6.89642 286.937 6.89642C287.097 6.89642 287.262 6.90859 287.358 6.938C287.502 6.98058 287.417 6.99275 287.155 6.99478C286.819 6.99681 286.489 7.0181 286.153 7.02216C285.977 7.02419 285.838 6.99984 285.827 6.9745C285.822 6.96233 285.902 6.94104 285.966 6.93698C286.19 6.92177 286.435 6.91265 286.499 6.9096Z" fill="#4F9CF9"/>
<path d="M316.994 0.944972C316.823 0.950042 316.642 0.964238 316.482 0.959168C316.269 0.952071 316.183 0.924699 316.237 0.899351C316.269 0.885156 316.327 0.864878 316.391 0.861836C316.733 0.847641 317.079 0.838508 317.421 0.828369C317.623 0.843578 317.714 0.864869 317.661 0.890217C317.629 0.904411 317.57 0.923675 317.506 0.927731C317.341 0.93787 317.165 0.939902 316.994 0.944972Z" fill="#4F9CF9"/>
<path d="M109.14 1.52996C109.306 1.52895 109.455 1.54213 109.583 1.56748C109.503 1.59992 109.386 1.62121 109.226 1.63034C109.146 1.63439 109.055 1.63743 108.97 1.63845C108.804 1.64047 108.655 1.62628 108.527 1.60093C108.607 1.56849 108.73 1.54719 108.884 1.53807C108.964 1.53401 109.055 1.533 109.14 1.52996Z" fill="#4F9CF9"/>
<path d="M370.255 10.5256C370.25 10.4962 370.575 10.4627 370.869 10.4637C371.023 10.4647 371.183 10.4789 371.274 10.5063C371.413 10.5479 371.333 10.5641 371.071 10.561C370.911 10.559 370.741 10.5762 370.581 10.5732C370.399 10.5722 370.293 10.5499 370.255 10.5256Z" fill="#4F9CF9"/>
<path d="M292.602 7.10032C292.597 7.08917 292.57 7.07599 292.586 7.06585C292.688 7.01009 293.301 6.99285 293.461 7.04152C293.488 7.05065 293.498 7.06585 293.477 7.07498C293.445 7.08917 293.386 7.10742 293.322 7.11148C293.157 7.12162 292.986 7.12669 292.816 7.1277C292.741 7.1277 292.672 7.11046 292.602 7.10032Z" fill="#4F9CF9"/>
<path d="M7.79527 6.88247C7.16588 6.90376 7.15522 6.90173 7.26723 6.85103C7.36857 6.80541 7.55528 6.77803 7.82731 6.77803C7.90732 6.77803 7.99263 6.77601 8.06196 6.78006C8.13664 6.78513 8.24338 6.79526 8.25938 6.80743C8.29138 6.83075 8.20062 6.8561 8.04061 6.87334C7.97127 6.88145 7.88062 6.87943 7.79527 6.88247Z" fill="#4F9CF9"/>
<path d="M117.469 1.38685C117.282 1.40409 117.122 1.39801 117.005 1.36556C116.888 1.33311 117.074 1.29458 117.4 1.28546C117.485 1.28343 117.576 1.27532 117.656 1.27938C117.736 1.28242 117.816 1.29458 117.864 1.30675C117.949 1.32702 117.896 1.35441 117.725 1.37773C117.656 1.38685 117.554 1.38482 117.469 1.38685Z" fill="#4F9CF9"/>
<path d="M370.267 10.4494C370.315 10.4362 370.363 10.423 370.416 10.4108C370.613 10.4281 370.699 10.4483 370.645 10.4717C370.613 10.4859 370.549 10.498 370.501 10.5112C370.304 10.494 370.224 10.4727 370.267 10.4494Z" fill="#4F9CF9"/>
<path d="M15.6556 18.4249C15.6556 18.4128 15.7303 18.3935 15.789 18.3894C15.901 18.3823 16.0396 18.3965 16.1356 18.4249C16.269 18.4655 16.189 18.4868 15.9437 18.4756C15.773 18.4675 15.6556 18.4472 15.6556 18.4249Z" fill="#4F9CF9"/>
<path d="M294.595 6.15649C294.664 6.16561 294.734 6.17474 294.798 6.18488C294.707 6.2224 294.595 6.23861 294.478 6.22847C294.403 6.22239 294.339 6.21022 294.27 6.2011C294.36 6.16358 294.467 6.14939 294.595 6.15649Z" fill="#4F9CF9"/>
<path d="M292.725 6.11102C292.832 6.09582 292.96 6.10394 293.109 6.13334C293.061 6.14652 293.019 6.16173 292.96 6.17187C292.859 6.18809 292.725 6.17997 292.581 6.14955C292.624 6.13739 292.672 6.12421 292.725 6.11102Z" fill="#4F9CF9"/>
<path d="M291.218 6.15563C291.287 6.16475 291.357 6.17388 291.421 6.18402C291.33 6.22153 291.223 6.23775 291.101 6.22761C291.026 6.22153 290.962 6.20936 290.893 6.20023C290.983 6.16272 291.09 6.14751 291.218 6.15563Z" fill="#4F9CF9"/>
<path d="M291.256 6.102C291.336 6.12228 291.293 6.14661 291.138 6.17399C291.069 6.16486 290.989 6.15777 290.936 6.1456C290.85 6.12634 290.893 6.10098 291.053 6.07361C291.117 6.08375 291.186 6.09288 291.256 6.102Z" fill="#4F9CF9"/>
</svg>
