<svg width="9" height="17" viewBox="0 0 9 17" fill="none" xmlns="http://www.w3.org/2000/svg">
<path fill-rule="evenodd" clip-rule="evenodd" d="M8.76129 7.70129C8.90174 7.84192 8.98063 8.03254 8.98063 8.23129C8.98063 8.43004 8.90174 8.62067 8.76129 8.76129L1.26129 16.2613C1.11912 16.3938 0.931071 16.4659 0.73677 16.4625C0.542469 16.459 0.357083 16.3803 0.21967 16.2429C0.0822568 16.1055 0.00354506 15.9201 0.000116847 15.7258C-0.00331137 15.5315 0.0688116 15.3435 0.201292 15.2013L7.17129 8.23129L0.201292 1.26129C0.0688116 1.11912 -0.00331137 0.93107 0.000116847 0.736769C0.00354506 0.542468 0.0822568 0.357083 0.21967 0.21967C0.357083 0.0822571 0.542469 0.00354506 0.73677 0.000116847C0.931071 -0.00331137 1.11912 0.0688118 1.26129 0.201292L8.76129 7.70129Z" fill="black"/>
</svg>
